<?xml version="1.0" encoding="UTF-8" standalone="no"?>
<!DOCTYPE svg PUBLIC "-//W3C//DTD SVG 1.1//EN" "http://www.w3.org/Graphics/SVG/1.1/DTD/svg11.dtd">
<svg viewBox="0 0 48 48" version="1.1" xmlns="http://www.w3.org/2000/svg" xmlns:xlink="http://www.w3.org/1999/xlink" xml:space="preserve" xmlns:serif="http://www.serif.com/" style="fill-rule:evenodd;clip-rule:evenodd;stroke-linejoin:round;stroke-miterlimit:2;">
    <g transform="matrix(0.110526,0,0,0.110526,-1.42105,-2.59474)">
        <path d="M49.048,240.62L175.715,150.143L175.715,186.334L383.811,186.334L383.811,294.906L175.715,294.906L175.715,331.096L49.048,240.62Z" style="fill:#fffc4e;fill-rule:nonzero;"/>
    </g>
    <g transform="matrix(0.110526,0,0,0.110526,-1.42105,-2.59474)">
        <path d="M184.762,303.953L184.762,331.096C184.762,334.485 182.868,337.59 179.855,339.141C176.841,340.692 173.214,340.428 170.456,338.459L43.789,247.982C41.411,246.284 40,243.542 40,240.62C40,237.698 41.411,234.956 43.789,233.257L170.456,142.781C173.214,140.811 176.841,140.548 179.855,142.098C182.868,143.649 184.762,146.754 184.762,150.143L184.762,177.286L383.811,177.286C388.807,177.286 392.858,181.337 392.858,186.334L392.858,294.906C392.858,299.903 388.807,303.953 383.811,303.953L184.762,303.953ZM49.048,240.62L175.715,150.143L175.715,186.334L383.811,186.334L383.811,294.906L175.715,294.906L175.715,331.096L49.048,240.62Z" style="fill:#9d9295;"/>
    </g>
</svg>
