<svg clip-rule="evenodd" fill-rule="evenodd" stroke-linejoin="round" stroke-miterlimit="2" viewBox="0 0 24 24" xmlns="http://www.w3.org/2000/svg" xmlns:xlink="http://www.w3.org/1999/xlink"><linearGradient id="a" gradientTransform="matrix(14 14 -14 14 1 1)" gradientUnits="userSpaceOnUse" x1="0" x2="1" y1="0" y2="0"><stop offset="0" stop-color="#fff"/><stop offset="1" stop-color="#eaeaea"/></linearGradient><path d="m1 1h14v14h-14z" fill="url(#a)" transform="translate(4 4)"/><path d="m16 1c0-.552-.448-1-1-1h-14c-.552 0-1 .448-1 1v14c0 .552.448 1 1 1h14c.552 0 1-.448 1-1zm-1 0h-14v14h14z" fill="#c5c4c4" transform="translate(4 4)"/><path d="m12 14.586 2.293-2.293c.39-.391 1.024-.391 1.414 0 .391.39.391 1.024 0 1.414l-3 3c-.39.391-1.024.391-1.414 0l-3-3c-.39-.39-.39-1.024 0-1.414s1.024-.39 1.414 0zm0-5 2.293-2.293c.39-.391 1.024-.391 1.414 0 .39.39.39 1.024 0 1.414l-3 3c-.39.391-1.024.391-1.414 0l-3-3c-.391-.39-.391-1.024 0-1.414.39-.39 1.024-.39 1.414 0z" fill="#adadad"/></svg>