<svg clip-rule="evenodd" fill-rule="evenodd" stroke-linejoin="round" stroke-miterlimit="2" viewBox="0 0 48 48" xmlns="http://www.w3.org/2000/svg" xmlns:xlink="http://www.w3.org/1999/xlink"><radialGradient id="a" cx="0" cy="0" gradientTransform="matrix(63.9122 0 0 12.642 63.9122 115.709)" gradientUnits="userSpaceOnUse" r="1"><stop offset="0" stop-opacity=".38"/><stop offset="1" stop-opacity="0"/></radialGradient><linearGradient id="b" gradientTransform="matrix(0 -18.0007 18.0007 0 20 21)" gradientUnits="userSpaceOnUse" x1="0" x2="1" y1="0" y2="0"><stop offset="0" stop-color="#7c7c7c"/><stop offset="1"/></linearGradient><path d="m127.824 115.709c0 6.935-28.851 12.642-63.912 12.642s-63.912-5.707-63.912-12.642 28.851-12.642 63.912-12.642 63.912 5.707 63.912 12.642z" fill="url(#a)" fill-rule="nonzero" transform="matrix(-.375515 0 0 .15625 48 27.9451)"/><g fill="#fff" transform="matrix(.981558 0 0 1 .719275 0)"><path d="m6.13 15.992-1.304 5.004c-.114.438-.517.745-.978.745h-3.562c-.317 0-.615-.146-.806-.395-.191-.248-.252-.57-.164-.869l5.182-17.751c.124-.425.52-.718.97-.718h4.418c.452 0 .848.295.971.721l3.532 12.257v-11.619c0-.469.334-.874.802-.97 1.049-.215 2.859-.389 4.648-.389 2.387 0 4.067.355 5.409 1.299 1.086.735 1.85 1.863 2.075 3.257.412-.739.905-1.388 1.464-1.947 1.728-1.727 4.091-2.609 6.654-2.609h3.56c.557 0 1.009.444 1.009.991v3.001c0 .547-.452.991-1.009.991h-3.426c-1.127 0-2.148.334-2.878 1.11-.783.833-1.218 2.13-1.218 3.932 0 1.697.386 3.009 1.145 3.886.701.811 1.72 1.205 2.951 1.205.877 0 1.812-.162 2.384-.414.284-.126.613-.116.889.029.275.144.468.405.52.708l.47 2.707c.075.43-.146.858-.545 1.053-.725.355-2.273.763-4.255.763-2.922 0-5.182-1.034-6.721-2.776-.305-.345-.582-.719-.829-1.12-.326.724-.798 1.381-1.399 1.918-1.317 1.197-3.479 1.91-6.954 1.91-1.659 0-2.922-.11-3.775-.227-.113.043-.235.066-.36.066h-3.688c-.451 0-.847-.294-.971-.72l-1.457-5.029zm32.871-12.993h-3.56c-4.568 0-8.441 3.093-8.441 9.219 0 5.19 2.865 8.761 8.038 8.761 1.77 0 3.157-.342 3.805-.659l-.47-2.707c-.672.297-1.767.502-2.798.502-3.114 0-5.105-2.117-5.105-6.082 0-4.234 2.26-6.033 5.105-6.033h3.426zm-23.603 17.681c.821.117 2.072.231 3.737.231 3.122 0 5.085-.57 6.268-1.646 1.026-.917 1.597-2.247 1.597-3.621 0-2.248-1.46-3.804-3.419-4.305v-.093c1.866-.708 2.803-2.199 2.803-3.804 0-1.443-.663-2.611-1.709-3.319-1.207-.849-2.712-1.124-4.836-1.124-1.709 0-3.439.162-4.441.368zm-9.93-17.681-5.182 17.751h3.562l1.498-5.749h4.3l1.666 5.749h3.688l-5.114-17.751zm14.532 9.779c1.734 0 3.468.735 3.468 2.773 0 1.996-1.553 2.821-3.375 2.821-.596 0-1.006-.024-1.348-.093v-5.501zm-.246 4.6c.105.002.218.003.339.003 1.238 0 2.366-.474 2.366-1.83 0-1.393-1.274-1.782-2.459-1.782h-.246zm-13.053-7.958c.265-1.043.571-2.497.81-3.606h.071c.239 1.084.546 2.518.831 3.626l.587 2.514-2.999.045zm19.357 1.386c-.123.129-.256.254-.397.373.12.079.237.163.35.251.011-.212.027-.42.047-.624zm-18.738.182.418-.006-.193-.824zm11.425-5.357c.298-.069.752-.113 1.485-.113 1.504 0 2.803.574 2.803 2.316 0 1.443-1.138 2.474-3.057 2.474h-1.231zm1.009 3.686h.222c1.233 0 2.048-.556 2.048-1.483 0-.391-.086-.687-.28-.889-.345-.36-.915-.436-1.514-.436-.177 0-.335.002-.476.007z"/><path d="m6.525 16.492-1.205 4.628c-.172.659-.778 1.121-1.472 1.121h-3.562c-.477 0-.926-.22-1.212-.593-.288-.374-.38-.859-.248-1.309 0 0 5.182-17.751 5.182-17.751.187-.639.783-1.08 1.46-1.08h4.418c.68 0 1.276.444 1.461 1.085l2.533 8.788v-8.014c0-.706.503-1.315 1.207-1.459 1.072-.22 2.923-.4 4.752-.4 2.52 0 4.289.396 5.698 1.387.882.597 1.572 1.429 1.973 2.439.281-.385.587-.741.914-1.067 1.823-1.822 4.313-2.759 7.017-2.759h3.56c.838 0 1.518.668 1.518 1.491v3.001c0 .823-.68 1.491-1.518 1.491h-3.426c-.978 0-1.87.276-2.504.949-.713.76-1.083 1.95-1.083 3.593 0 1.553.33 2.76 1.024 3.563.608.702 1.497 1.028 2.563 1.028.8 0 1.654-.14 2.174-.37.428-.189.924-.174 1.339.044.414.217.704.61.782 1.065 0 0 .47 2.707.47 2.707.113.647-.219 1.291-.82 1.584-.764.375-2.393.816-4.482.816-3.091 0-5.478-1.105-7.106-2.948-.135-.154-.266-.312-.391-.476-.304.484-.675.928-1.106 1.313-1.384 1.258-3.647 2.043-7.3 2.043-1.615 0-2.862-.103-3.727-.216-.131.036-.268.055-.408.055h-3.688c-.678 0-1.274-.442-1.461-1.083l-1.352-4.666zm-.395-.5-1.304 5.004c-.114.438-.517.745-.978.745h-3.562c-.317 0-.615-.146-.806-.395-.191-.248-.252-.57-.164-.869l5.182-17.751c.124-.425.52-.718.97-.718h4.418c.452 0 .848.295.971.721l3.532 12.257v-11.619c0-.469.334-.874.802-.97 1.049-.215 2.859-.389 4.648-.389 2.387 0 4.067.355 5.409 1.299 1.086.735 1.85 1.863 2.075 3.257.412-.739.905-1.388 1.464-1.947 1.728-1.727 4.091-2.609 6.654-2.609h3.56c.557 0 1.009.444 1.009.991v3.001c0 .547-.452.991-1.009.991h-3.426c-1.127 0-2.148.334-2.878 1.11-.783.833-1.218 2.13-1.218 3.932 0 1.697.386 3.009 1.145 3.886.701.811 1.72 1.205 2.951 1.205.877 0 1.812-.162 2.384-.414.284-.126.613-.116.889.029.275.144.468.405.52.708l.47 2.707c.075.43-.146.858-.545 1.053-.725.355-2.273.763-4.255.763-2.922 0-5.182-1.034-6.721-2.776-.305-.345-.582-.719-.829-1.12-.326.724-.798 1.381-1.399 1.918-1.317 1.197-3.479 1.91-6.954 1.91-1.659 0-2.922-.11-3.775-.227-.113.043-.235.066-.36.066h-3.688c-.451 0-.847-.294-.971-.72l-1.457-5.029zm32.871-12.993h-3.56c-4.568 0-8.441 3.093-8.441 9.219 0 5.19 2.865 8.761 8.038 8.761 1.77 0 3.157-.342 3.805-.659l-.47-2.707c-.672.297-1.767.502-2.798.502-3.114 0-5.105-2.117-5.105-6.082 0-4.234 2.26-6.033 5.105-6.033h3.426zm-23.603 17.681c.821.117 2.072.231 3.737.231 3.122 0 5.085-.57 6.268-1.646 1.026-.917 1.597-2.247 1.597-3.621 0-2.248-1.46-3.804-3.419-4.305v-.093c1.866-.708 2.803-2.199 2.803-3.804 0-1.443-.663-2.611-1.709-3.319-1.207-.849-2.712-1.124-4.836-1.124-1.709 0-3.439.162-4.441.368zm-9.93-17.681-5.182 17.751h3.562l1.498-5.749h4.3l1.666 5.749h3.688l-5.114-17.751zm33.024.5h-3.051c-2.143 0-4.126.719-5.57 2.163-1.46 1.459-2.362 3.651-2.362 6.556 0 2.459.664 4.539 1.955 5.999 1.273 1.441 3.157 2.262 5.574 2.262 1.398 0 2.544-.218 3.235-.465l-.3-1.728c-.689.2-1.563.329-2.398.329-1.722 0-3.128-.597-4.108-1.73-.952-1.1-1.506-2.725-1.506-4.852 0-2.276.63-3.891 1.62-4.943 1.017-1.082 2.423-1.59 3.994-1.59h2.917zm-22.585 16.742c.788.093 1.867.17 3.228.17 2.944 0 4.806-.498 5.925-1.516.921-.823 1.431-2.018 1.431-3.251 0-1.996-1.299-3.376-3.038-3.821-.225-.058-.381-.256-.381-.484v-.093c0-.207.129-.392.325-.466 1.642-.623 2.478-1.926 2.478-3.338 0-1.263-.574-2.288-1.497-2.913-1.131-.796-2.548-1.03-4.539-1.03-1.457 0-2.93.119-3.932.283zm-4.21.009h2.63l-4.826-16.751h-3.649l-4.89 16.751h2.49l1.4-5.373c.058-.221.261-.376.494-.376h4.3c.228 0 .428.148.49.363zm8.303-7.972h-1.255c-.281 0-.509.224-.509.5v5.501c0 .237.17.442.406.49.369.074.81.103 1.451.103 1.249 0 2.377-.365 3.088-1.129.491-.527.796-1.247.796-2.192 0-2.365-1.965-3.273-3.977-3.273zm0 .5c1.734 0 3.468.735 3.468 2.773 0 1.996-1.553 2.821-3.375 2.821-.596 0-1.006-.024-1.348-.093v-5.501zm-.246 4.6c.105.002.218.003.339.003 1.238 0 2.366-.474 2.366-1.83 0-1.393-1.274-1.782-2.459-1.782h-.246zm.509-3.103v2.603c.881-.035 1.687-.355 1.687-1.327 0-.967-.851-1.234-1.687-1.276zm-14.055-4.979c.263-1.038.567-2.483.805-3.585.049-.232.257-.397.498-.397h.071c.24 0 .447.164.498.394.238 1.079.543 2.507.827 3.61l.59 2.524c.034.147-.001.302-.096.421-.095.118-.239.189-.393.191l-2.999.045c-.16.002-.311-.069-.41-.192-.098-.124-.131-.285-.09-.437zm.493.124c.265-1.043.571-2.497.81-3.606h.071c.239 1.084.546 2.518.831 3.626l.587 2.514-2.999.045zm19.357 1.386c-.123.129-.256.254-.397.373.12.079.237.163.35.251.011-.212.027-.42.047-.624zm-18.738.182.418-.006-.193-.824zm11.308-5.844c-.23.054-.392.255-.392.487v4.677c0 .276.228.5.509.5h1.231c2.267 0 3.566-1.27 3.566-2.974 0-.851-.269-1.469-.691-1.91-.607-.634-1.565-.906-2.621-.906-.791 0-1.28.052-1.602.126zm.117.487c.298-.069.752-.113 1.485-.113 1.504 0 2.803.574 2.803 2.316 0 1.443-1.138 2.474-3.057 2.474h-1.231zm1.009 3.686h.222c1.233 0 2.048-.556 2.048-1.483 0-.391-.086-.687-.28-.889-.345-.36-.915-.436-1.514-.436-.177 0-.335.002-.476.007zm.509-2.308v1.796c.739-.062 1.252-.377 1.252-.971 0-.237-.024-.424-.142-.546-.251-.262-.674-.278-1.11-.279z"/></g><g fill-rule="nonzero"><path d="m39.001 2.999h-3.56c-4.568 0-8.441 3.093-8.441 9.219 0 5.19 2.865 8.761 8.038 8.761 1.77 0 3.157-.342 3.805-.659l-.47-2.707c-.672.297-1.767.502-2.798.502-3.114 0-5.105-2.117-5.105-6.082 0-4.234 2.26-6.033 5.105-6.033h3.426zm-23.603 17.681c.821.117 2.072.231 3.737.231 3.122 0 5.085-.57 6.268-1.646 1.026-.917 1.597-2.247 1.597-3.621 0-2.248-1.46-3.804-3.419-4.305v-.093c1.866-.708 2.803-2.199 2.803-3.804 0-1.443-.663-2.611-1.709-3.319-1.207-.849-2.712-1.124-4.836-1.124-1.709 0-3.439.162-4.441.368zm-9.93-17.681-5.182 17.751h3.562l1.498-5.749h4.3l1.666 5.749h3.688l-5.114-17.751zm14.532 9.779c1.734 0 3.468.735 3.468 2.773 0 1.996-1.553 2.821-3.375 2.821-.596 0-1.006-.024-1.348-.093v-5.501zm-13.299-3.358c.265-1.043.571-2.497.81-3.606h.071c.239 1.084.546 2.518.831 3.626l.587 2.514-2.999.045zm12.044-3.789c.298-.069.752-.113 1.485-.113 1.504 0 2.803.574 2.803 2.316 0 1.443-1.138 2.474-3.057 2.474h-1.231z" fill="url(#b)" transform="matrix(.981558 0 0 1 .719275 0)"/><path d="m52.593 74.75-32.26-32.055-16 16.055 48.26 48 63.74-64.055-16-15.945z" fill="#249b2c" transform="matrix(.375 0 0 .375 1.375 4.96877)"/></g></svg>