<?xml version="1.0" encoding="UTF-8" standalone="no"?>
<!DOCTYPE svg PUBLIC "-//W3C//DTD SVG 1.1//EN" "http://www.w3.org/Graphics/SVG/1.1/DTD/svg11.dtd">
<svg viewBox="0 0 48 48" version="1.1" xmlns="http://www.w3.org/2000/svg" xmlns:xlink="http://www.w3.org/1999/xlink" xml:space="preserve" xmlns:serif="http://www.serif.com/" style="fill-rule:evenodd;clip-rule:evenodd;">
    <g id="Layer-1" serif:id="Layer 1">
        <g id="path8660" transform="matrix(1.47967,0,0,-0.872353,-13.5515,72.5668)">
            <path d="M40.482,36.421C40.482,41.028 33.42,44.818 24.837,44.818C16.255,44.818 9.192,41.028 9.192,36.421C9.192,31.815 16.255,28.024 24.837,28.024C33.42,28.024 40.482,31.815 40.482,36.421Z" style="fill:url(#_Radial1);"/>
        </g>
        <path id="path1432" d="M17.425,41.893C0.284,32.442 9.936,12.409 26.422,12.566L26.422,4.5L42.5,18.558L26.422,33.302L26.422,24.573C16.188,24.157 11.681,31.84 20.65,37.936C23.217,39.681 21.439,44.107 17.425,41.893Z" style="fill:url(#_Linear2);fill-rule:nonzero;stroke:#4e9a06;stroke-width:1px;"/>
        <path id="path4247" d="M27.438,6.688L27.438,12.563C27.429,13.111 26.986,13.554 26.438,13.563C18.608,13.488 12.455,18.244 10.281,24C8.107,29.756 9.703,36.491 17.938,41.031C18.788,41.5 19.403,41.547 19.813,41.469C20.222,41.391 20.48,41.172 20.656,40.875C21.009,40.282 20.956,39.368 20.094,38.781C17.737,37.179 16.185,35.43 15.406,33.625C14.628,31.82 14.666,29.953 15.438,28.375C16.98,25.22 21.092,23.344 26.469,23.563C27.005,23.587 27.43,24.025 27.438,24.563L27.438,31L41,18.563L27.438,6.688Z" style="fill:none;fill-rule:nonzero;stroke:url(#_Linear3);stroke-width:1px;"/>
        <path id="path4920" d="M41.66,18.605C23.11,15.475 12.765,20.755 8.865,29.041C8.711,16.398 21.828,12.721 26.955,13.109L26.939,5.602L41.66,18.605Z" style="fill:url(#_Linear4);"/>
    </g>
    <defs>
        <radialGradient id="_Radial1" cx="0" cy="0" r="1" gradientUnits="userSpaceOnUse" gradientTransform="matrix(15.6447,0,0,8.39689,24.8371,36.4211)"><stop offset="0" style="stop-color:#000;stop-opacity:0.13"/><stop offset="1" style="stop-color:#000;stop-opacity:0"/></radialGradient>
        <linearGradient id="_Linear2" x1="0" y1="0" x2="1" y2="0" gradientUnits="userSpaceOnUse" gradientTransform="matrix(4.75,2.9375,-2.9375,4.75,13.1875,35.9375)"><stop offset="0" style="stop-color:#73d216;stop-opacity:1"/><stop offset="1" style="stop-color:#8ae234;stop-opacity:1"/></linearGradient>
        <linearGradient id="_Linear3" x1="0" y1="0" x2="1" y2="0" gradientUnits="userSpaceOnUse" gradientTransform="matrix(-3.4798,26.4873,-26.4873,-3.4798,21.5523,29.205)"><stop offset="0" style="stop-color:#fff;stop-opacity:0.62"/><stop offset="1" style="stop-color:#fff;stop-opacity:0"/></linearGradient>
        <linearGradient id="_Linear4" x1="0" y1="0" x2="1" y2="0" gradientUnits="userSpaceOnUse" gradientTransform="matrix(-14.4555,6.85331,-6.85331,-14.4555,28.5329,14.8463)"><stop offset="0" style="stop-color:#fff;stop-opacity:0.45"/><stop offset="1" style="stop-color:#fff;stop-opacity:0"/></linearGradient>
    </defs>
</svg>
