<svg clip-rule="evenodd" fill-rule="evenodd" stroke-linejoin="round" stroke-miterlimit="2" viewBox="0 0 16 16" xmlns="http://www.w3.org/2000/svg" xmlns:xlink="http://www.w3.org/1999/xlink"><linearGradient id="a" gradientTransform="matrix(-.188737 9 -10.2154 -.166282 3.90628 1.90126)" gradientUnits="userSpaceOnUse" x1="0" x2="1" y1="0" y2="0"><stop offset="0" stop-color="#7c7c7c"/><stop offset="1"/></linearGradient><g transform="matrix(.881022 0 0 1 4.29038 1.09874)"><path d="m-.591 10.257-.261.893c-.129.442-.581.751-1.099.751h-2.088c-.355 0-.69-.147-.904-.396-.215-.249-.285-.572-.189-.874l2.664-8.398c.137-.432.584-.731 1.093-.731h1.896c.509 0 .956.299 1.093.731l2.664 8.398c.096.302.026.625-.189.874-.214.249-.549.396-.904.396h-2.088c-.518 0-.97-.309-1.099-.751l-.261-.893zm-.784-7.755-2.664 8.399h2.088l.48-1.644h2.088l.48 1.644h2.088l-2.664-8.399zm.3 5.04.624-2.436h.048l.624 2.436z" fill="#fff"/><path d="m-1.375 2.502-2.664 8.399h2.088l.48-1.644h2.088l.48 1.644h2.088l-2.664-8.399zm.3 5.04.624-2.436h.048l.624 2.436z" fill="url(#a)" fill-rule="nonzero"/><path d="m6.069 11.772c-.165.082-.356.129-.557.129h-1.558c-.627 0-1.135-.448-1.135-1v-8.999c0-.552.508-1 1.135-1h1.918c.627 0 1.135.448 1.135 1v1.25c.11-.012.22-.018.331-.018.901 0 1.613.27 2.154.738.681.59 1.103 1.569 1.103 2.889v1.597c0 1.323-.429 2.31-1.139 2.906-.549.462-1.275.733-2.203.733-.39 0-.8-.082-1.184-.225zm-.197-9.87h-1.918v8.999h1.558l.156-.612c.336.42.997.708 1.585.708 1.488 0 2.207-.996 2.207-2.639v-1.597c0-1.644-.707-2.627-2.122-2.627-.565 0-1.141.264-1.466.588zm0 4.475c.228-.264.517-.432.853-.432.564 0 .817.348.817 1.056v1.129c0 .72-.253 1.056-.817 1.056-.336 0-.625-.18-.853-.444z" fill="#fff"/><path d="m5.872 1.902h-1.918v8.999h1.558l.156-.612c.336.42.997.708 1.585.708 1.488 0 2.207-.996 2.207-2.639v-1.597c0-1.644-.707-2.627-2.122-2.627-.565 0-1.141.264-1.466.588zm0 4.475c.228-.264.517-.432.853-.432.564 0 .817.348.817 1.056v1.129c0 .72-.253 1.056-.817 1.056-.336 0-.625-.18-.853-.444z" fill="url(#a)" fill-rule="nonzero"/><path d="m9.167 10.901c0 .552.508 1 1.135 1h2.158c.627 0 1.135-.448 1.135-1v-2.171c0-.552-.508-1-1.135-1h-2.158c-.627 0-1.135.448-1.135 1zm1.135 0h2.158v-2.171h-2.158z" fill="#fff"/><path d="m10.302 8.73h2.159v2.171h-2.159z" fill="url(#a)" fill-rule="nonzero"/></g></svg>