<svg clip-rule="evenodd" fill-rule="evenodd" viewBox="0 0 48 48" xmlns="http://www.w3.org/2000/svg" xmlns:xlink="http://www.w3.org/1999/xlink"><linearGradient id="a" gradientTransform="matrix(0 478.357 -478.357 0 -1051.94 -150.697)" gradientUnits="userSpaceOnUse" x1="0" x2="1" y1="0" y2="0"><stop offset="0" stop-opacity="0"/><stop offset=".5" stop-opacity=".4"/><stop offset="1" stop-opacity="0"/></linearGradient><linearGradient id="b"><stop offset="0" stop-opacity=".4"/><stop offset="1" stop-opacity="0"/></linearGradient><radialGradient id="c" cx="0" cy="0" gradientTransform="matrix(325 0 0 230.737 -211.146 85.6679)" gradientUnits="userSpaceOnUse" r="1" xlink:href="#b"/><radialGradient id="d" cx="0" cy="0" gradientTransform="matrix(-325 0 0 230.737 -1567.72 85.6679)" gradientUnits="userSpaceOnUse" r="1" xlink:href="#b"/><linearGradient id="e" gradientTransform="matrix(19.8747 26.2168 -26.2168 19.8747 19.7006 16.1276)" gradientUnits="userSpaceOnUse" x1="0" x2="1" y1="0" y2="0"><stop offset="0" stop-color="#f8f8f7"/><stop offset=".6" stop-color="#e8e8e8"/><stop offset="1" stop-color="#e2e2de"/></linearGradient><g transform="matrix(.0233057 0 0 .0122706 44.4789 44.4169)"><path d="m-1559.25-150.697h1339.63v478.357h-1339.63z" fill="url(#a)"/><g fill-rule="nonzero"><path d="m-219.619-150.68v478.33c142.874.901 345.4-107.169 345.4-239.196 0-132.026-159.436-239.134-345.4-239.134z" fill="url(#c)"/><path d="m-1559.25-150.68v478.33c-142.88.901-345.4-107.169-345.4-239.196 0-132.026 159.43-239.134 345.4-239.134z" fill="url(#d)"/></g></g><path d="m43.498 2.063c0-.312-.253-.566-.566-.566h-37.864c-.313 0-.566.254-.566.566v43.87c0 .313.253.567.566.567h37.864c.313 0 .566-.254.566-.567z" fill="url(#e)" stroke="#888a85"/><path d="m5.5 2.5h37.026v43.022h-37.026z" fill="none" stroke="#fff"/><g fill="#4d4d4d"><path d="m17 11h-5v-3h13v3h-5v25h5v3h-13v-3h5z" transform="translate(5)"/><path d="m34.5 15 3.5 4.566h-7z" transform="matrix(0 1 -1.09509 0 50.4264 -11)"/><path d="m34.5 15 3.5 4.566h-7z" transform="matrix(0 1 1.09509 0 -3.4264 -11)"/></g></svg>