<svg clip-rule="evenodd" fill-rule="evenodd" stroke-linejoin="round" stroke-miterlimit="2" viewBox="0 0 16 16" xmlns="http://www.w3.org/2000/svg" xmlns:xlink="http://www.w3.org/1999/xlink"><linearGradient id="a" gradientTransform="matrix(-.188737 9 -10.2154 -.166282 3.90628 1.90126)" gradientUnits="userSpaceOnUse" x1="0" x2="1" y1="0" y2="0"><stop offset="0" stop-color="#7c7c7c"/><stop offset="1"/></linearGradient><g transform="matrix(.881022 0 0 1 5.94461 1.09874)"><path d="m-3.942 6.818c-.071-.084-.127-.179-.166-.281l-.503-1.332c-.16-.422.017-.887.433-1.14.99-.599 2.105-.931 3.187-.931 1.276 0 2.198.364 2.82.952.608.574.954 1.399.954 2.46v4.355c0 .552-.508 1-1.135 1h-1.583c-.192 0-.375-.043-.535-.119-.357.133-.774.215-1.266.215-1.735 0-3.149-1.085-3.149-2.931 0-.97.356-1.711.943-2.248zm5.59-.272c0-1.525-.851-2.412-2.639-2.412-.865 0-1.752.276-2.543.755l.503 1.332c.768-.36 1.355-.492 1.872-.492.685 0 .877.3.877.661v.288c-1.79 0-3.468.635-3.468 2.388 0 1.199.887 1.931 2.014 1.931.841 0 1.346-.372 1.67-.756l.131.66h1.583zm-2.867 2.928c-.409 0-.649-.24-.649-.589 0-.624.721-.912 1.586-.912v.972c-.144.253-.457.529-.937.529z" fill="#fff"/><path d="m1.648 6.546c0-1.525-.851-2.412-2.639-2.412-.865 0-1.752.276-2.543.755l.503 1.332c.768-.36 1.355-.492 1.872-.492.685 0 .877.3.877.661v.288c-1.79 0-3.468.635-3.468 2.388 0 1.199.887 1.931 2.014 1.931.841 0 1.346-.372 1.67-.756l.131.66h1.583zm-2.867 2.928c-.409 0-.649-.24-.649-.589 0-.624.721-.912 1.586-.912v.972c-.144.253-.457.529-.937.529z" fill="url(#a)" fill-rule="nonzero"/><path d="m5.025 11.772c-.165.082-.356.129-.557.129h-1.558c-.627 0-1.135-.448-1.135-1v-8.999c0-.552.508-1 1.135-1h1.918c.627 0 1.135.448 1.135 1v1.25c.11-.012.22-.018.331-.018.901 0 1.613.27 2.154.738.681.59 1.103 1.569 1.103 2.889v1.597c0 1.323-.429 2.31-1.139 2.906-.549.462-1.275.733-2.203.733-.39 0-.8-.082-1.184-.225zm-.197-9.87h-1.918v8.999h1.558l.156-.612c.336.42.997.708 1.585.708 1.488 0 2.207-.996 2.207-2.639v-1.597c0-1.644-.707-2.627-2.122-2.627-.565 0-1.141.264-1.466.588zm0 4.475c.228-.264.517-.432.853-.432.564 0 .817.348.817 1.056v1.129c0 .72-.253 1.056-.817 1.056-.336 0-.625-.18-.853-.444z" fill="#fff"/><path d="m4.828 1.902h-1.918v8.999h1.558l.156-.612c.336.42.997.708 1.585.708 1.488 0 2.207-.996 2.207-2.639v-1.597c0-1.644-.707-2.627-2.122-2.627-.565 0-1.141.264-1.466.588zm0 4.475c.228-.264.517-.432.853-.432.564 0 .817.348.817 1.056v1.129c0 .72-.253 1.056-.817 1.056-.336 0-.625-.18-.853-.444z" fill="url(#a)" fill-rule="nonzero"/></g></svg>