<svg clip-rule="evenodd" fill-rule="evenodd" stroke-linejoin="round" stroke-miterlimit="2" viewBox="0 0 48 48" xmlns="http://www.w3.org/2000/svg"><g fill="#516a91" fill-rule="nonzero"><path d="m.342-.632-.134.363h.268zm-.056-.097h.112l.278.729h-.103l-.066-.187h-.329l-.066.187h-.104z" transform="matrix(46.4094 0 0 49.3825 3.63743 38)"/><path d="m39.149 42.934h5.286v2.566h-8.939v-2.255l.126-.142c.652-.736 1.527-1.718 2.628-2.948 1.099-1.209 1.794-1.99 2.065-2.344l.008-.01c.514-.637.872-1.166 1.068-1.597.189-.399.278-.781.278-1.164 0-.588-.17-1.058-.552-1.434-.373-.365-.861-.537-1.469-.537-.48 0-.975.087-1.512.273-.554.197-1.156.484-1.791.878l-.763.474v-3.111l.298-.132c.714-.314 1.374-.548 1.983-.706.645-.162 1.235-.241 1.751-.241 1.446 0 2.583.411 3.444 1.19.872.809 1.309 1.891 1.309 3.233 0 .631-.098 1.22-.327 1.788-.203.543-.565 1.187-1.117 1.916l-.005.006c-.139.171-.589.706-1.349 1.56-.598.689-1.411 1.602-2.42 2.737z"/></g></svg>