<svg clip-rule="evenodd" fill-rule="evenodd" stroke-linejoin="round" stroke-miterlimit="2" viewBox="0 0 16 16" xmlns="http://www.w3.org/2000/svg" xmlns:xlink="http://www.w3.org/1999/xlink"><linearGradient id="a" gradientTransform="matrix(-.188737 9 -10.2154 -.166282 3.90628 1.90126)" gradientUnits="userSpaceOnUse" x1="0" x2="1" y1="0" y2="0"><stop offset="0" stop-color="#7c7c7c"/><stop offset="1"/></linearGradient><g transform="matrix(.881022 0 0 1 5.32646 1.09874)"><path d="m-.591 10.257-.261.893c-.129.442-.581.751-1.099.751h-2.088c-.355 0-.69-.147-.904-.396-.215-.249-.285-.572-.189-.874l2.664-8.398c.137-.432.584-.731 1.093-.731h1.896c.509 0 .956.299 1.093.731l2.664 8.398c.096.302.026.625-.189.874-.214.249-.549.396-.904.396h-2.088c-.518 0-.97-.309-1.099-.751l-.261-.893zm-.784-7.755-2.664 8.399h2.088l.48-1.644h2.088l.48 1.644h2.088l-2.664-8.399zm.3 5.04.624-2.436h.048l.624 2.436z" fill="#fff"/><path d="m-1.375 2.502-2.664 8.399h2.088l.48-1.644h2.088l.48 1.644h2.088l-2.664-8.399zm.3 5.04.624-2.436h.048l.624 2.436z" fill="url(#a)" fill-rule="nonzero"/><path d="m10.585 6.492c.434.526.658 1.187.658 1.949 0 1.141-.398 1.988-1.103 2.568-.675.555-1.677.892-3.067.892h-3.011c-.627 0-1.135-.448-1.135-1v-8.399c0-.552.508-1 1.135-1h3.155c1.296 0 2.243.38 2.883.963.646.588.999 1.41.999 2.388 0 .639-.19 1.193-.514 1.639zm-6.523-3.99v8.399h3.011c2.064 0 3.035-.84 3.035-2.46 0-.84-.371-1.512-1.127-1.896v-.048c.6-.299.983-.887.983-1.644 0-1.38-.899-2.351-2.747-2.351zm1.966 4.919h.985c.684 0 1.069.216 1.069.888 0 .685-.385.889-1.153.889h-.901zm0-3.216h1.093c.6 0 .829.276.829.804 0 .517-.229.793-.829.793h-1.093z" fill="#fff"/><path d="m4.062 2.502v8.399h3.011c2.064 0 3.035-.84 3.035-2.46 0-.84-.371-1.512-1.127-1.896v-.048c.6-.299.983-.887.983-1.644 0-1.38-.899-2.351-2.747-2.351zm1.966 4.919h.985c.684 0 1.069.216 1.069.888 0 .685-.385.889-1.153.889h-.901zm0-3.216h1.093c.6 0 .829.276.829.804 0 .517-.229.793-.829.793h-1.093z" fill="url(#a)" fill-rule="nonzero"/></g></svg>