<svg viewBox="0 0 48 48" xmlns="http://www.w3.org/2000/svg" xmlns:xlink="http://www.w3.org/1999/xlink"><linearGradient id="a"><stop offset="0" stop-color="#fff"/><stop offset="1" stop-color="#fff" stop-opacity="0"/></linearGradient><filter id="b" height="1.157943" width="1.244782" x="-.122391" y="-.078971"><feGaussianBlur stdDeviation=".321914"/></filter><filter id="c" height="1.598266" width="1.90393" x="-.451965" y="-.299133"><feGaussianBlur stdDeviation="1.3476562"/></filter><filter id="d"><feGaussianBlur stdDeviation=".395"/></filter><filter id="e"><feGaussianBlur stdDeviation=".4349886"/></filter><radialGradient id="f" cx="71.775223" cy="16.0865" gradientTransform="matrix(.9650814 .2619502 -.9201984 3.3902106 17.309062 -57.693239)" gradientUnits="userSpaceOnUse" r="3.15625"><stop offset="0" stop-color="#f0ff80"/><stop offset="1" stop-color="#f0ff80" stop-opacity="0"/></radialGradient><radialGradient id="g" cx="11.578125" cy="64.53125" gradientTransform="matrix(6.5079869 0 0 1.510917 -63.772161 -32.970115)" gradientUnits="userSpaceOnUse" r="3.578125" xlink:href="#a"/><radialGradient id="h" cx="71.775223" cy="16.0865" gradientTransform="matrix(.9650814 .2619502 -.9201984 3.3902106 9.309062 -57.693239)" gradientUnits="userSpaceOnUse" r="3.15625" xlink:href="#a"/><linearGradient id="i" gradientUnits="userSpaceOnUse" x1="120.37312" x2="120.37312" y1="120.42788" y2="46.089832"><stop offset="0" stop-color="#002a0d"/><stop offset="1" stop-color="#002a0d" stop-opacity="0"/></linearGradient><linearGradient id="j" gradientUnits="userSpaceOnUse" x1="91.626404" x2="66.225945" y1="123.73875" y2="28.942928"><stop offset="0" stop-color="#0f0"/><stop offset="1" stop-color="#004d00"/></linearGradient><radialGradient id="k" cx="47.934944" cy="77.572655" fx="48.230755" fy="84.389229" gradientTransform="matrix(1.4429896 .00000008 -.00000008 1.3852701 -6.365246 -31.441692)" gradientUnits="userSpaceOnUse" r="50"><stop offset="0" stop-color="#0d0"/><stop offset="1" stop-color="#000e00"/></radialGradient><linearGradient id="l" gradientUnits="userSpaceOnUse" x1="115.78525" x2="115.99271" y1="112.5" y2="44.287056"><stop offset="0" stop-color="#e0ffe0"/><stop offset="1" stop-color="#bfffbf" stop-opacity="0"/></linearGradient><linearGradient id="m" gradientUnits="userSpaceOnUse" x1="43.629562" x2="54.758774" y1="11.479795" y2="70.827744"><stop offset="0" stop-color="#bfffbf"/><stop offset="1" stop-color="#bfffbf" stop-opacity="0"/></linearGradient><linearGradient id="n" gradientUnits="userSpaceOnUse" x1="84" x2="62.345421" xlink:href="#a" y1="67.238144" y2="40.171875"/><linearGradient id="o" gradientUnits="userSpaceOnUse" x1="70.548485" x2="74.758774" xlink:href="#a" y1="13.921767" y2="70.827744"/><g transform="matrix(-.35708761 -.00000003214 -.00000003214 .35708779 36.14098139852 1.14789218391)"><g fill-rule="evenodd"><path d="m63.875 12c-.865503.02693-1.698899.33398-2.375.875l-60 48c-.949856.75913-1.5 1.90906-1.5 3.125s.550144 2.36587 1.5 3.125l60 48c1.200963.96113 2.832437 1.13525 4.21875.46875 1.386317-.6665 2.281892-2.05554 2.28125-3.59375v-17.28125-61.4375-17.28125c.000417-1.08285-.441373-2.12118-1.21875-2.875s-1.823927-1.15873-2.90625-1.125z" fill="#004d00" filter="url(#e)" opacity=".536946" stroke="#004d00" stroke-linejoin="round"/><path d="m63.875 12c-.865503.02693-1.698899.33398-2.375.875l-60 48c-.949856.75913-1.5 1.90906-1.5 3.125s.550144 2.36587 1.5 3.125l60 48c1.200963.96113 2.832437 1.13525 4.21875.46875 1.386317-.6665 2.281892-2.05554 2.28125-3.59375v-17.28125-10.25-.59375-5.8125-28.125-4.9375-1.46875-10.25-17.28125c.000417-1.08285-.441373-2.12118-1.21875-2.875s-1.823927-1.15873-2.90625-1.125zm-3.875 12.3125v15.375l-5.40625 4.3125h-9.59375c-.554 0-1 .446-1 1v7.46875l-10.5 8.40625c-.949856.75913-1.5 1.90906-1.5 3.125s.550144 2.36587 1.5 3.125l10.5 8.40625v8.34375c0 .554.446 1 1 1h10.6875l4.3125 3.4375v15.375l-49.59375-39.6875zm-16 38.40625v2.5625l-1.59375-1.28125z" fill="url(#j)"/><path d="m63.875 12c-.865503.02693-1.698899.33398-2.375.875l-60 48c-.949856.75913-1.5 1.90906-1.5 3.125s.550144 2.36587 1.5 3.125l60 48c1.200963.96113 2.832437 1.13525 4.21875.46875 1.386317-.6665 2.281892-2.05554 2.28125-3.59375v-17.28125-10.25-.59375-.6875-5.125-28.125-4.9375-.1875-1.28125-10.25-17.28125c.000417-1.08285-.441373-2.12118-1.21875-2.875s-1.823927-1.15873-2.90625-1.125zm-3.875 12.3125v15.375l-5.40625 4.3125h-9.59375c-.554 0-1 .446-1 1v7.46875l-10.5 8.40625c-.949856.75913-1.5 1.90906-1.5 3.125s.550144 2.36587 1.5 3.125l10.5 8.40625v8.34375c0 .554.446 1 1 1h10.6875l4.3125 3.4375v15.375l-49.59375-39.6875zm-16 38.40625v2.5625l-1.59375-1.28125z" fill="url(#i)" opacity=".536946"/><path d="m64 16-60 48 60 48v-25.59375-44.8125z" fill="url(#k)"/></g><path d="m64 16-60 48 60 48v-25.59375-44.8125z" fill="none" filter="url(#d)" stroke="url(#l)" stroke-width=".5"/><g fill-rule="evenodd"><path d="m63.875 12c-.799041.02487-1.572946.283948-2.21875.75l.96875 9.03125 5.34375-6.15625c-.08779-.946211-.499493-1.832841-1.1875-2.5-.777377-.75382-1.823927-1.158727-2.90625-1.125z" fill="url(#h)" filter="url(#b)" opacity=".85"/><path d="m71.875 12c-.799041.02487-1.572946.283948-2.21875.75l.96875 9.03125 5.34375-6.15625c-.08779-.946211-.499493-1.832841-1.1875-2.5-.777377-.75382-1.823927-1.158727-2.90625-1.125z" fill="url(#f)" filter="url(#b)" opacity=".35" transform="matrix(1 0 0 -1 -8 127.7793)"/><path d="m11.6875 59.125-2.1875 1.75c-.9498559.759129-1.5 1.909063-1.5 3.125.0000001 1.215937.5501441 2.365871 1.5 3.125l3.53125 2.8125 2.125-5.625z" fill="url(#g)" filter="url(#c)" opacity=".5" transform="matrix(1 0 0 -1 -8 128.5625)"/><path d="m64 16-59.8125 47.84375c8.051341.325047 16.325945.5 24.71875.5 12.055796 0 23.792287-.368324 35.09375-1.03125v-21.71875z" fill="url(#m)"/><path d="m84 16-.34375.28125v25.09375 21.53125c-11.238981.657345-22.885856 1.031249-34.875 1.03125-8.173257 0-16.244047-.159182-24.09375-.46875l-.5.375c8.051341.325047 16.325945.5 24.71875.5 12.055796 0 23.792287-.368324 35.09375-1.03125v-21.71875z" fill="url(#n)" transform="translate(-20)"/><path d="m84 16-59.8125 47.84375 59.5625-46.9375v25.125 21.28125c.08232-.0048.167722.0048.25 0v-21.71875z" fill="url(#o)" transform="translate(-20)"/></g></g></svg>