<svg clip-rule="evenodd" fill-rule="evenodd" stroke-linecap="round" stroke-linejoin="round" viewBox="0 0 48 48" xmlns="http://www.w3.org/2000/svg" xmlns:xlink="http://www.w3.org/1999/xlink"><radialGradient id="a" cx="0" cy="0" gradientTransform="matrix(16.3571 -.00000261 .00000096 5.99999 24.3571 40.1893)" gradientUnits="userSpaceOnUse" r="1"><stop offset="0" stop-opacity=".33"/><stop offset="1" stop-opacity="0"/></radialGradient><linearGradient id="b" gradientTransform="matrix(10.6811 46.8012 -46.8012 10.6811 -34.312 2.04454)" gradientUnits="userSpaceOnUse" x1="0" x2="1" y1="0" y2="0"><stop offset="0" stop-color="#184375"/><stop offset="1" stop-color="#a07be2"/></linearGradient><path d="m44.286 38.712v.004c0 5.397-8.996 9.837-19.929 9.837-10.932 0-19.928-4.44-19.928-9.837v-.004c0-5.396 8.996-9.837 19.928-9.837 10.933 0 19.929 4.441 19.929 9.837z" fill="url(#a)" transform="matrix(1.18638 0 0 1.18638 -4.53969 -7.79468)"/><g transform="matrix(1 0 0 -1 0 46.7499)"><path d="m22.7.947c-.474.033-.934.106-1.398.159h-.032l-1.112 6.068c-1.812.413-3.517 1.113-5.051 2.065l-4.988-3.59c-1.348 1.047-2.575 2.268-3.654 3.59l3.463 5.052c-1.051 1.606-1.842 3.441-2.287 5.369v.031l-6.036.953c-.111.902-.159 1.833-.159 2.764 0 .762.021 1.514.095 2.256l6.036 1.08c.43 2.096 1.245 4.054 2.383 5.782l-3.59 4.924c1.028 1.277 2.215 2.439 3.495 3.463l5.083-3.494c1.776 1.133 3.759 1.928 5.909 2.319l.953 6.004c.677.062 1.372.064 2.065.064.979 0 1.914-.037 2.859-.159l1.144-6.132c2.041-.507 3.958-1.389 5.623-2.573l4.893 3.558c1.268-1.079 2.429-2.32 3.431-3.653l-3.558-5.147c.963-1.664 1.631-3.5 1.969-5.464l6.005-.953c.052-.627.063-1.234.063-1.875 0-1.112-.129-2.203-.286-3.272l-6.099-1.112c-.478-1.765-1.263-3.412-2.256-4.892l3.59-4.924c-1.113-1.361-2.382-2.618-3.781-3.686l-5.178 3.558c-1.488-.88-3.09-1.555-4.829-1.938l-.953-6.036c-.868-.102-1.742-.159-2.637-.159-.242 0-.491-.007-.731 0-.117.004-.232-.006-.349 0-.032.002-.064-.002-.095 0zm.826 15.44c.116-.006.231 0 .349 0 3.761 0 6.83 3.07 6.83 6.831 0 3.76-3.069 6.798-6.83 6.798s-6.799-3.038-6.799-6.798c0-3.643 2.852-6.648 6.45-6.831z" fill="url(#b)" fill-rule="nonzero" stroke="#3f4561"/><g fill="none" stroke="#fff" stroke-linecap="butt" stroke-linejoin="miter"><path d="m36.239 23.782c0 6.982-5.745 12.728-12.728 12.728-6.982 0-12.728-5.746-12.728-12.728 0-6.983 5.746-12.728 12.728-12.728 6.983 0 12.728 5.745 12.728 12.728z" stroke-opacity=".65" stroke-width="1.62" transform="matrix(.616598 0 0 .616598 9.38202 8.53967)"/><path d="m21.996 2.148-.893 5.876c-1.699.386-4.824 1.57-6.261 2.462l-4.75-3.545c-1.264.981-1.351 1.047-2.361 2.287l3.434 5.093c-.985 1.506-2.169 4.19-2.594 6.108l-6.018 1.014c-.103.845-.054 2.654.016 3.349l5.748 1.036c.402 1.965 1.908 5.127 2.975 6.747l-3.635 4.803c.964 1.196 1.156 1.306 2.356 2.266l4.86-3.561c1.666 1.062 4.971 2.354 6.986 2.721l.797 5.801c.635.058 2.389.22 3.275.106l.893-6.039c1.913-.476 5.219-1.833 6.779-2.943l4.856 3.508c1.189-1.012 1.2-1.164 2.139-2.414l-3.598-5.114c.903-1.56 2.071-4.611 2.388-6.452l5.891-.977c.049-.588.052-2.225-.095-3.228l-6.002-1.035c-.448-1.655-1.986-4.636-2.917-6.024l3.815-4.802c-1.043-1.276-1.431-1.451-2.742-2.451l-5.024 3.598c-1.395-.825-4.177-2.083-5.807-2.441l-.887-5.749c-.814-.095-3.16-.053-3.624 0z" stroke-opacity=".35"/></g></g></svg>