<svg clip-rule="evenodd" fill-rule="evenodd" stroke-linejoin="round" stroke-miterlimit="2" viewBox="0 0 16 16" xmlns="http://www.w3.org/2000/svg"><path d="m15 1.05c0-.58-.47-1.05-1.05-1.05h-12.9c-.58 0-1.05.47-1.05 1.05v13.9c0 .58.47 1.05 1.05 1.05h12.9c.58 0 1.05-.47 1.05-1.05zm-1 0v13.9c0 .028-.022.05-.05.05h-12.9c-.028 0-.05-.022-.05-.05v-13.9c0-.028.022-.05.05-.05h12.9c.028 0 .05.022.05.05z" fill="#888a85"/><path d="m15 0h-15v16h15zm-13.846 1.143v13.714h12.692v-13.714z" fill="#fff" transform="matrix(.866667 0 0 .875 1 1.00006)"/><path d="m2 2.000063h11v12h-11z" fill="#ebebeb"/><g fill="#364d5c" fill-rule="nonzero"><path d="m.215-.75h-.16v.75h.16v-.379c.021-.017.052-.033.081-.033.039 0 .063.021.063.08v.332h.16v-.365c0-.113-.047-.199-.167-.199-.054 0-.101.017-.137.044z" transform="matrix(10.5723 0 0 12 1.41853 12.0001)"/><path d="m.268-.708c-.086 0-.172.033-.239.082l.068.114c.053-.033.112-.054.16-.054.051 0 .085.022.085.062 0 .103-.302.209-.302.398v.106h.477v-.144h-.306c0-.094.295-.179.295-.366 0-.124-.091-.198-.238-.198z" transform="matrix(10.5723 0 0 12 7.43414 12.0001)"/></g></svg>