<svg clip-rule="evenodd" fill-rule="evenodd" stroke-linejoin="round" stroke-miterlimit="2" viewBox="0 0 16 16" xmlns="http://www.w3.org/2000/svg"><path d="m15 1.05c0-.58-.47-1.05-1.05-1.05h-12.9c-.58 0-1.05.47-1.05 1.05v13.9c0 .58.47 1.05 1.05 1.05h12.9c.58 0 1.05-.47 1.05-1.05zm-1 0v13.9c0 .028-.022.05-.05.05h-12.9c-.028 0-.05-.022-.05-.05v-13.9c0-.028.022-.05.05-.05h12.9c.028 0 .05.022.05.05z" fill="#888a85"/><path d="m15 0h-15v16h15zm-13.846 1.143v13.714h12.692v-13.714z" fill="#fff" transform="matrix(.866667 0 0 .875 1 1.00006)"/><path d="m2 2.000063h11v12h-11z" fill="#ebebeb"/><g fill="#364d5c" fill-rule="nonzero"><path d="m.215-.75h-.16v.75h.16v-.379c.021-.017.052-.033.081-.033.039 0 .063.021.063.08v.332h.16v-.365c0-.113-.047-.199-.167-.199-.054 0-.101.017-.137.044z" transform="matrix(10.572264 0 0 12 1.41799652512 12.00004)"/><path d="m.299-.133c-.054 0-.088-.035-.088-.105v-.052c.017-.02.046-.045.088-.045.053 0 .09.027.09.099 0 .07-.037.103-.09.103zm.032-.433c.054 0 .094.014.143.044l.061-.116c-.054-.038-.121-.069-.218-.069-.185 0-.27.126-.27.29v.179c0 .145.099.247.252.247.17 0 .254-.104.254-.245 0-.148-.084-.236-.225-.236-.051 0-.092.021-.117.045v-.022c0-.08.05-.117.12-.117z" transform="matrix(10.572264 0 0 12 7.16930814112 12.00004)"/></g></svg>