<svg clip-rule="evenodd" fill-rule="evenodd" stroke-linejoin="round" stroke-miterlimit="2" viewBox="0 0 16 16" xmlns="http://www.w3.org/2000/svg"><path d="m15 1.05c0-.58-.47-1.05-1.05-1.05h-12.9c-.58 0-1.05.47-1.05 1.05v13.9c0 .58.47 1.05 1.05 1.05h12.9c.58 0 1.05-.47 1.05-1.05zm-1 0v13.9c0 .028-.022.05-.05.05h-12.9c-.028 0-.05-.022-.05-.05v-13.9c0-.028.022-.05.05-.05h12.9c.028 0 .05.022.05.05z" fill="#888a85"/><path d="m15 0h-15v16h15zm-13.846 1.143v13.714h12.692v-13.714z" fill="#fff" transform="matrix(.866667 0 0 .875 1 1.00006)"/><path d="m2 2.000063h11v12h-11z" fill="#ebebeb"/><g fill="#364d5c" fill-rule="nonzero"><path d="m.215-.75h-.16v.75h.16v-.379c.021-.017.052-.033.081-.033.039 0 .063.021.063.08v.332h.16v-.365c0-.113-.047-.199-.167-.199-.054 0-.101.017-.137.044z" transform="matrix(10.572264 0 0 12 1.41799652512 12.00004)"/><path d="m.27-.135c-.053 0-.11-.02-.174-.052l-.062.114c.065.052.155.081.237.081.193 0 .256-.117.256-.238 0-.13-.073-.234-.238-.234-.027 0-.058.006-.073.012l.007-.107h.262v-.141h-.397l-.021.355.085.053c.036-.02.074-.035.115-.035.065 0 .099.043.099.097 0 .042-.014.095-.096.095z" transform="matrix(10.572264 0 0 12 7.43361474112 12.00004)"/></g></svg>