<?xml version="1.0" encoding="UTF-8" standalone="no"?>
<!DOCTYPE svg PUBLIC "-//W3C//DTD SVG 1.1//EN" "http://www.w3.org/Graphics/SVG/1.1/DTD/svg11.dtd">
<svg width="100%" height="100%" viewBox="0 0 48 48" version="1.1" xmlns="http://www.w3.org/2000/svg" xmlns:xlink="http://www.w3.org/1999/xlink" xml:space="preserve" xmlns:serif="http://www.serif.com/" style="fill-rule:evenodd;clip-rule:evenodd;">
    <g transform="matrix(1,0,0,1,12,12)">
        <rect x="0" y="0" width="24" height="24" style="fill:none;"/>
    </g>
    <g transform="matrix(1,0,0,1,12,12)">
        <g id="g5022" transform="matrix(0.0233057,0,0,0.0122706,32.4789,32.4169)">
            <rect id="rect4173" x="-1559.25" y="-150.697" width="1339.63" height="478.357" style="fill:url(#_Linear1);"/>
            <path id="path5058" d="M-219.619,-150.68L-219.619,327.65C-76.745,328.551 125.781,220.481 125.781,88.454C125.781,-43.572 -33.655,-150.68 -219.619,-150.68Z" style="fill:url(#_Radial2);fill-rule:nonzero;"/>
            <path id="path5018" d="M-1559.25,-150.68L-1559.25,327.65C-1702.13,328.551 -1904.65,220.481 -1904.65,88.454C-1904.65,-43.572 -1745.22,-150.68 -1559.25,-150.68Z" style="fill:url(#_Radial3);fill-rule:nonzero;"/>
        </g>
        <g id="rect4238" transform="matrix(1,0,0,1,-12,-12)">
            <path d="M43.498,2.063C43.498,1.751 43.245,1.497 42.932,1.497L5.068,1.497C4.755,1.497 4.502,1.751 4.502,2.063L4.502,45.933C4.502,46.246 4.755,46.5 5.068,46.5L42.932,46.5C43.245,46.5 43.498,46.246 43.498,45.933L43.498,2.063Z" style="fill:url(#_Linear4);stroke:#888a85;stroke-width:1px;"/>
        </g>
        <g id="rect2245" transform="matrix(1,0,0,1,-12,-12)">
            <rect x="5.5" y="2.5" width="37.026" height="43.022" style="fill:none;stroke:#fff;stroke-width:1px;"/>
        </g>
        <g transform="matrix(25.0077,0,0,25.0077,-3.48023,21)">
            <path d="M0.549,-0.33L0.549,-0L0.459,-0L0.459,-0.327C0.459,-0.379 0.449,-0.418 0.429,-0.443C0.409,-0.469 0.378,-0.482 0.338,-0.482C0.289,-0.482 0.251,-0.466 0.223,-0.436C0.195,-0.405 0.181,-0.362 0.181,-0.309L0.181,-0L0.091,-0L0.091,-0.76L0.181,-0.76L0.181,-0.462C0.203,-0.495 0.228,-0.519 0.257,-0.536C0.286,-0.552 0.32,-0.56 0.358,-0.56C0.421,-0.56 0.468,-0.541 0.5,-0.502C0.533,-0.463 0.549,-0.406 0.549,-0.33Z" style="fill:#161716;fill-rule:nonzero;"/>
        </g>
        <g transform="matrix(21.9272,0,0,21.9272,13.0122,18.2741)">
            <path d="M0.47,-0.609L0.295,-0.514L0.47,-0.419L0.442,-0.371L0.278,-0.47L0.278,-0.286L0.222,-0.286L0.222,-0.47L0.058,-0.371L0.03,-0.419L0.205,-0.514L0.03,-0.609L0.058,-0.657L0.222,-0.558L0.222,-0.742L0.278,-0.742L0.278,-0.558L0.442,-0.657L0.47,-0.609Z" style="fill:#161716;fill-rule:nonzero;"/>
        </g>
    </g>
    <defs>
        <linearGradient id="_Linear1" x1="0" y1="0" x2="1" y2="0" gradientUnits="userSpaceOnUse" gradientTransform="matrix(2.92909e-14,478.357,-478.357,2.92909e-14,-1051.94,-150.697)"><stop offset="0" style="stop-color:#000;stop-opacity:0"/><stop offset="0.5" style="stop-color:#000;stop-opacity:0.4"/><stop offset="1" style="stop-color:#000;stop-opacity:0"/></linearGradient>
        <radialGradient id="_Radial2" cx="0" cy="0" r="1" gradientUnits="userSpaceOnUse" gradientTransform="matrix(325,0,0,230.737,-211.146,85.6679)"><stop offset="0" style="stop-color:#000;stop-opacity:0.4"/><stop offset="1" style="stop-color:#000;stop-opacity:0"/></radialGradient>
        <radialGradient id="_Radial3" cx="0" cy="0" r="1" gradientUnits="userSpaceOnUse" gradientTransform="matrix(-325,0,0,230.737,-1567.72,85.6679)"><stop offset="0" style="stop-color:#000;stop-opacity:0.4"/><stop offset="1" style="stop-color:#000;stop-opacity:0"/></radialGradient>
        <linearGradient id="_Linear4" x1="0" y1="0" x2="1" y2="0" gradientUnits="userSpaceOnUse" gradientTransform="matrix(19.8747,26.2168,-26.2168,19.8747,19.7006,16.1276)"><stop offset="0" style="stop-color:#f8f8f7;stop-opacity:1"/><stop offset="0.6" style="stop-color:#e8e8e8;stop-opacity:1"/><stop offset="1" style="stop-color:#e2e2de;stop-opacity:1"/></linearGradient>
    </defs>
</svg>
