<svg clip-rule="evenodd" fill-rule="evenodd" stroke-linejoin="round" stroke-miterlimit="2" viewBox="0 0 16 16" xmlns="http://www.w3.org/2000/svg"><path d="m15 1.05c0-.58-.47-1.05-1.05-1.05h-12.9c-.58 0-1.05.47-1.05 1.05v13.9c0 .58.47 1.05 1.05 1.05h12.9c.58 0 1.05-.47 1.05-1.05zm-1 0v13.9c0 .028-.022.05-.05.05h-12.9c-.028 0-.05-.022-.05-.05v-13.9c0-.028.022-.05.05-.05h12.9c.028 0 .05.022.05.05z" fill="#888a85"/><path d="m15 0h-15v16h15zm-13.846 1.143v13.714h12.692v-13.714z" fill="#fff" transform="matrix(.866667 0 0 .875 1 1.00006)"/><path d="m2 2.000063h11v12h-11z" fill="#ebebeb"/><g fill="#364d5c" fill-rule="nonzero"><path d="m.215-.75h-.16v.75h.16v-.379c.021-.017.052-.033.081-.033.039 0 .063.021.063.08v.332h.16v-.365c0-.113-.047-.199-.167-.199-.054 0-.101.017-.137.044z" transform="matrix(10.572264 0 0 12 1.41799652512 12.00004)"/><path d="m.262-.135c-.053 0-.109-.02-.174-.053l-.063.116c.058.038.143.08.238.08.192 0 .258-.107.258-.22 0-.076-.023-.124-.075-.161.041-.035.058-.088.058-.133 0-.12-.077-.202-.227-.202-.073 0-.163.024-.238.079l.064.115c.039-.026.1-.051.159-.051.056 0 .078.03.078.071 0 .047-.036.069-.084.069h-.118v.129h.131c.06 0 .09.03.09.08 0 .039-.015.081-.097.081z" transform="matrix(10.572264 0 0 12 7.43361474112 12.00004)"/></g></svg>