<svg clip-rule="evenodd" fill-rule="evenodd" stroke-linejoin="round" stroke-miterlimit="2" viewBox="0 0 16 16" xmlns="http://www.w3.org/2000/svg" xmlns:xlink="http://www.w3.org/1999/xlink"><radialGradient id="a" cx="43.0078" cy="48.3984" gradientUnits="userSpaceOnUse" r="37.5"><stop offset="0" stop-color="#7396c1"/><stop offset="1" stop-color="#204a87"/></radialGradient><g transform="matrix(.284444 0 0 .284444 -.533333 -.533333)"><circle cx="30" cy="30" fill="url(#a)" r="28.125"/><path d="m30 1.875c15.523 0 28.125 12.602 28.125 28.125s-12.602 28.125-28.125 28.125-28.125-12.602-28.125-28.125 12.602-28.125 28.125-28.125zm0 3.6c13.536 0 24.525 10.989 24.525 24.525s-10.989 24.525-24.525 24.525-24.525-10.989-24.525-24.525 10.989-24.525 24.525-24.525z" fill="#224c88"/></g><g fill="#fff"><path d="m30 4.219c14.229 0 25.781 11.552 25.781 25.781s-11.552 25.781-25.781 25.781-25.781-11.552-25.781-25.781 11.552-25.781 25.781-25.781zm0 3.596c12.242 0 22.178 9.943 22.178 22.185s-9.936 22.185-22.178 22.185-22.178-9.943-22.178-22.185 9.936-22.185 22.178-22.185z" fill-opacity=".7" transform="matrix(.27101 0 0 .271515 -.117282 -.145455)"/><path d="m.367-.22s-.125.001-.125 0c0-.039.007-.072.02-.097.013-.026.04-.055.08-.088.04-.032.064-.054.072-.064.012-.016.018-.033.018-.052 0-.027-.011-.05-.032-.069-.022-.019-.05-.029-.087-.029-.034 0-.063.01-.087.03-.023.02-.039.05-.048.091l-.126-.016c.003-.058.028-.107.074-.148s.107-.061.182-.061c.078 0 .141.02.188.062.046.041.069.089.069.143 0 .031-.008.059-.025.086s-.054.064-.11.111c-.029.024-.047.043-.054.058-.004.009-.009.043-.009.043zm-.125.22v-.137h.137v.137z" fill-rule="nonzero" transform="matrix(13.6274 0 0 13.6057 3.79468 13)"/></g></svg>