<?xml version="1.0" encoding="UTF-8" standalone="no"?>
<!DOCTYPE svg PUBLIC "-//W3C//DTD SVG 1.1//EN" "http://www.w3.org/Graphics/SVG/1.1/DTD/svg11.dtd">
<svg width="100%" height="100%" viewBox="0 0 48 48" version="1.1" xmlns="http://www.w3.org/2000/svg" xmlns:xlink="http://www.w3.org/1999/xlink" xml:space="preserve" xmlns:serif="http://www.serif.com/" style="fill-rule:evenodd;clip-rule:evenodd;">
    <g id="Layer-1" serif:id="Layer 1">
        <g>
            <g id="g5022" transform="matrix(0.0233057,0,0,0.0122706,44.4789,44.4169)">
                <g>
                    <rect id="rect4173" x="-1559.25" y="-150.697" width="1339.63" height="478.357" style="fill:url(#_Linear1);"/>
                    <path id="path5058" d="M-219.619,-150.68L-219.619,327.65C-76.745,328.551 125.781,220.481 125.781,88.454C125.781,-43.572 -33.655,-150.68 -219.619,-150.68Z" style="fill:url(#_Radial2);fill-rule:nonzero;"/>
                    <path id="path5018" d="M-1559.25,-150.68L-1559.25,327.65C-1702.13,328.551 -1904.65,220.481 -1904.65,88.454C-1904.65,-43.572 -1745.22,-150.68 -1559.25,-150.68Z" style="fill:url(#_Radial3);fill-rule:nonzero;"/>
                </g>
            </g>
            <path id="rect4238" d="M43.498,2.063C43.498,1.751 43.245,1.497 42.932,1.497L5.068,1.497C4.755,1.497 4.502,1.751 4.502,2.063L4.502,45.933C4.502,46.246 4.755,46.5 5.068,46.5L42.932,46.5C43.245,46.5 43.498,46.246 43.498,45.933L43.498,2.063Z" style="fill:url(#_Linear4);stroke:#888a85;stroke-width:1px;"/>
            <g id="rect4250" transform="matrix(0.367544,0,0,3,6.32456,-24)">
                <g>
                    <rect x="10" y="10" width="16.325" height="2" style="fill:#999;"/>
                </g>
            </g>
            <g id="rect4252" transform="matrix(1.86667,0,0,1,-8.66667,0)">
                <g>
                    <rect x="10" y="14" width="15" height="2" style="fill:#999;"/>
                </g>
            </g>
            <rect id="rect2245" x="5.5" y="2.5" width="37.026" height="43.022" style="fill:none;stroke:#fff;stroke-width:1px;"/>
        </g>
    </g>
    <g id="Layer1" transform="matrix(1,0,0,1,3,0)">
        <g transform="matrix(1.07649,0,0,0.754185,-1.96929,7.93145)">
            <path d="M29.698,33.239L25.982,27.273L25.982,21C25.982,20.602 26.206,20.24 26.557,20.073C26.907,19.907 27.319,19.966 27.611,20.226L36.2,33.239L27.611,46.253C27.319,46.512 26.907,46.572 26.557,46.405C26.206,46.239 25.982,45.877 25.982,45.479L25.982,39.206L29.698,33.239ZM26.911,27.12L26.911,21L35.271,33.239L26.911,45.479L26.911,39.359L30.627,33.239L26.911,27.12Z" style="fill:#004ea3;"/>
        </g>
        <g transform="matrix(1.07649,0,0,0.754185,-1.96929,7.93145)">
            <path d="M26.911,27.12L26.911,21L35.271,33.239L26.911,45.479L26.911,39.359L30.627,33.239L26.911,27.12Z" style="fill:url(#_Linear5);"/>
        </g>
        <g id="path8658" transform="matrix(-1,0,0,1,50.2166,11.9527)">
            <path d="M14.967,21.047L22.717,29.047L22.717,25.947L18.567,21.047L22.717,16.147L22.717,13.047L14.967,21.047Z" style="fill:none;stroke:url(#_Linear6);stroke-width:1px;stroke-miterlimit:10;"/>
        </g>
    </g>
    <g id="Layer11" serif:id="Layer1" transform="matrix(1,0,0,1,-8,0)">
        <g transform="matrix(1.07649,0,0,0.754185,-1.96929,7.93145)">
            <path d="M29.698,33.239L25.982,27.273L25.982,21C25.982,20.602 26.206,20.24 26.557,20.073C26.907,19.907 27.319,19.966 27.611,20.226L36.2,33.239L27.611,46.253C27.319,46.512 26.907,46.572 26.557,46.405C26.206,46.239 25.982,45.877 25.982,45.479L25.982,39.206L29.698,33.239ZM26.911,27.12L26.911,21L35.271,33.239L26.911,45.479L26.911,39.359L30.627,33.239L26.911,27.12Z" style="fill:#004ea3;"/>
        </g>
        <g transform="matrix(1.07649,0,0,0.754185,-1.96929,7.93145)">
            <path d="M26.911,27.12L26.911,21L35.271,33.239L26.911,45.479L26.911,39.359L30.627,33.239L26.911,27.12Z" style="fill:url(#_Linear7);"/>
        </g>
        <g id="path86581" serif:id="path8658" transform="matrix(-1,0,0,1,50.2166,11.9527)">
            <path d="M14.967,21.047L22.717,29.047L22.717,25.947L18.567,21.047L22.717,16.147L22.717,13.047L14.967,21.047Z" style="fill:none;stroke:url(#_Linear8);stroke-width:1px;stroke-miterlimit:10;"/>
        </g>
    </g>
    <defs>
        <linearGradient id="_Linear1" x1="0" y1="0" x2="1" y2="0" gradientUnits="userSpaceOnUse" gradientTransform="matrix(2.92909e-14,478.357,-478.357,2.92909e-14,-1051.94,-150.697)"><stop offset="0" style="stop-color:#000;stop-opacity:0"/><stop offset="0.5" style="stop-color:#000;stop-opacity:0.4"/><stop offset="1" style="stop-color:#000;stop-opacity:0"/></linearGradient>
        <radialGradient id="_Radial2" cx="0" cy="0" r="1" gradientUnits="userSpaceOnUse" gradientTransform="matrix(325,0,0,230.737,-211.146,85.6679)"><stop offset="0" style="stop-color:#000;stop-opacity:0.4"/><stop offset="1" style="stop-color:#000;stop-opacity:0"/></radialGradient>
        <radialGradient id="_Radial3" cx="0" cy="0" r="1" gradientUnits="userSpaceOnUse" gradientTransform="matrix(-325,0,0,230.737,-1567.72,85.6679)"><stop offset="0" style="stop-color:#000;stop-opacity:0.4"/><stop offset="1" style="stop-color:#000;stop-opacity:0"/></radialGradient>
        <linearGradient id="_Linear4" x1="0" y1="0" x2="1" y2="0" gradientUnits="userSpaceOnUse" gradientTransform="matrix(19.8747,26.2168,-26.2168,19.8747,19.7006,16.1276)"><stop offset="0" style="stop-color:#f8f8f7;stop-opacity:1"/><stop offset="0.6" style="stop-color:#e8e8e8;stop-opacity:1"/><stop offset="1" style="stop-color:#e2e2de;stop-opacity:1"/></linearGradient>
        <linearGradient id="_Linear5" x1="0" y1="0" x2="1" y2="0" gradientUnits="userSpaceOnUse" gradientTransform="matrix(13.818,0,0,13.818,24.182,32.2194)"><stop offset="0" style="stop-color:#00b1ff;stop-opacity:1"/><stop offset="1" style="stop-color:#003d79;stop-opacity:1"/></linearGradient>
        <linearGradient id="_Linear6" x1="0" y1="0" x2="1" y2="0" gradientUnits="userSpaceOnUse" gradientTransform="matrix(10.6515,28.8611,-28.8611,10.6515,8.84771,13.9762)"><stop offset="0" style="stop-color:#fff;stop-opacity:0.48"/><stop offset="1" style="stop-color:#fff;stop-opacity:0"/></linearGradient>
        <linearGradient id="_Linear7" x1="0" y1="0" x2="1" y2="0" gradientUnits="userSpaceOnUse" gradientTransform="matrix(13.818,0,0,13.818,24.182,32.2194)"><stop offset="0" style="stop-color:#00b1ff;stop-opacity:1"/><stop offset="1" style="stop-color:#003d79;stop-opacity:1"/></linearGradient>
        <linearGradient id="_Linear8" x1="0" y1="0" x2="1" y2="0" gradientUnits="userSpaceOnUse" gradientTransform="matrix(10.6515,28.8611,-28.8611,10.6515,8.84771,13.9762)"><stop offset="0" style="stop-color:#fff;stop-opacity:0.48"/><stop offset="1" style="stop-color:#fff;stop-opacity:0"/></linearGradient>
    </defs>
</svg>
