<?xml version="1.0" encoding="UTF-8" standalone="no"?>
<!DOCTYPE svg PUBLIC "-//W3C//DTD SVG 1.1//EN" "http://www.w3.org/Graphics/SVG/1.1/DTD/svg11.dtd">
<svg width="100%" height="100%" viewBox="0 0 48 48" version="1.1" xmlns="http://www.w3.org/2000/svg" xmlns:xlink="http://www.w3.org/1999/xlink" xml:space="preserve" xmlns:serif="http://www.serif.com/" style="fill-rule:evenodd;clip-rule:evenodd;">
    <g id="g5022" transform="matrix(0.0233057,0,0,0.0122706,44.4789,44.4169)">
        <g>
            <rect id="rect4173" x="-1559.25" y="-150.697" width="1339.63" height="478.357" style="fill:url(#_Linear1);"/>
            <path id="path5058" d="M-219.619,-150.68L-219.619,327.65C-76.745,328.551 125.781,220.481 125.781,88.454C125.781,-43.572 -33.655,-150.68 -219.619,-150.68Z" style="fill:url(#_Radial2);fill-rule:nonzero;"/>
            <path id="path5018" d="M-1559.25,-150.68L-1559.25,327.65C-1702.13,328.551 -1904.65,220.481 -1904.65,88.454C-1904.65,-43.572 -1745.22,-150.68 -1559.25,-150.68Z" style="fill:url(#_Radial3);fill-rule:nonzero;"/>
        </g>
    </g>
    <path id="rect4238" d="M43.498,2.063C43.498,1.751 43.245,1.497 42.932,1.497L5.068,1.497C4.755,1.497 4.502,1.751 4.502,2.063L4.502,45.933C4.502,46.246 4.755,46.5 5.068,46.5L42.932,46.5C43.245,46.5 43.498,46.246 43.498,45.933L43.498,2.063Z" style="fill:url(#_Linear4);stroke:#888a85;stroke-width:1px;"/>
    <g id="rect4250" transform="matrix(0.367544,0,0,3,6.32456,-24)">
        <g>
            <rect x="10" y="10" width="16.325" height="2" style="fill:#999;"/>
        </g>
    </g>
    <g id="rect4252" transform="matrix(1.86667,0,0,1,-8.66667,0)">
        <g>
            <rect x="10" y="14" width="15" height="2" style="fill:#999;"/>
        </g>
    </g>
    <rect id="rect2245" x="5.5" y="2.5" width="37.026" height="43.022" style="fill:none;stroke:#fff;stroke-width:1px;"/>
    <g id="Layer1" transform="matrix(0.5625,0,0,0.5625,14,18)">
        <g>
            <g transform="matrix(1.91377,0,0,1.54189,-23.0565,-21.9179)">
                <g id="Layer11" serif:id="Layer1">
                    <path d="M24.124,28.051L24.124,21.133L29.698,21.133L29.698,28.051L35.271,28.051L35.271,34.969L29.698,34.969L29.698,41.887L24.124,41.887L24.124,34.969L18.55,34.969L18.55,28.051L24.124,28.051Z" style="fill:url(#_Linear5);"/>
                    <path d="M23.195,26.898L23.195,21.133C23.195,20.496 23.611,19.98 24.124,19.98L29.698,19.98C30.211,19.98 30.627,20.496 30.627,21.133L30.627,26.898L35.271,26.898C35.784,26.898 36.2,27.414 36.2,28.051L36.2,34.969C36.2,35.606 35.784,36.122 35.271,36.122L30.627,36.122L30.627,41.887C30.627,42.523 30.211,43.04 29.698,43.04L24.124,43.04C23.611,43.04 23.195,42.523 23.195,41.887L23.195,36.122L18.55,36.122C18.037,36.122 17.621,35.606 17.621,34.969L17.621,28.051C17.621,27.414 18.037,26.898 18.55,26.898L23.195,26.898ZM24.124,28.051L24.124,21.133L29.698,21.133L29.698,28.051L35.271,28.051L35.271,34.969L29.698,34.969L29.698,41.887L24.124,41.887L24.124,34.969L18.55,34.969L18.55,28.051L24.124,28.051Z" style="fill:#1087ba;"/>
                </g>
            </g>
            <g id="path8658" transform="matrix(-1.77778,0,0,1.77778,48.385,-10.7508)">
                <path d="M8.717,18.547L2.717,18.547L2.717,23.547L8.717,23.547L8.717,29.547L13.717,29.547L13.717,23.547L19.701,23.547L19.717,18.547L13.717,18.547L13.717,12.566L8.717,12.566L8.717,18.547Z" style="fill:none;stroke:url(#_Linear6);stroke-width:1px;stroke-miterlimit:10;"/>
            </g>
        </g>
    </g>
    <defs>
        <linearGradient id="_Linear1" x1="0" y1="0" x2="1" y2="0" gradientUnits="userSpaceOnUse" gradientTransform="matrix(2.92909e-14,478.357,-478.357,2.92909e-14,-1051.94,-150.697)"><stop offset="0" style="stop-color:#000;stop-opacity:0"/><stop offset="0.5" style="stop-color:#000;stop-opacity:0.4"/><stop offset="1" style="stop-color:#000;stop-opacity:0"/></linearGradient>
        <radialGradient id="_Radial2" cx="0" cy="0" r="1" gradientUnits="userSpaceOnUse" gradientTransform="matrix(325,0,0,230.737,-211.146,85.6679)"><stop offset="0" style="stop-color:#000;stop-opacity:0.4"/><stop offset="1" style="stop-color:#000;stop-opacity:0"/></radialGradient>
        <radialGradient id="_Radial3" cx="0" cy="0" r="1" gradientUnits="userSpaceOnUse" gradientTransform="matrix(-325,0,0,230.737,-1567.72,85.6679)"><stop offset="0" style="stop-color:#000;stop-opacity:0.4"/><stop offset="1" style="stop-color:#000;stop-opacity:0"/></radialGradient>
        <linearGradient id="_Linear4" x1="0" y1="0" x2="1" y2="0" gradientUnits="userSpaceOnUse" gradientTransform="matrix(19.8747,26.2168,-26.2168,19.8747,19.7006,16.1276)"><stop offset="0" style="stop-color:#f8f8f7;stop-opacity:1"/><stop offset="0.6" style="stop-color:#e8e8e8;stop-opacity:1"/><stop offset="1" style="stop-color:#e2e2de;stop-opacity:1"/></linearGradient>
        <linearGradient id="_Linear5" x1="0" y1="0" x2="1" y2="0" gradientUnits="userSpaceOnUse" gradientTransform="matrix(16.7209,-20.7538,13.4718,16.7209,18.5503,41.8866)"><stop offset="0" style="stop-color:#00d2ff;stop-opacity:1"/><stop offset="1" style="stop-color:#3094ad;stop-opacity:1"/></linearGradient>
        <linearGradient id="_Linear6" x1="0" y1="0" x2="1" y2="0" gradientUnits="userSpaceOnUse" gradientTransform="matrix(10.6515,28.8611,-28.8611,10.6515,8.84771,13.9762)"><stop offset="0" style="stop-color:#fff;stop-opacity:0.48"/><stop offset="1" style="stop-color:#fff;stop-opacity:0"/></linearGradient>
    </defs>
</svg>
