<?xml version="1.0" encoding="UTF-8" standalone="no"?>
<!DOCTYPE svg PUBLIC "-//W3C//DTD SVG 1.1//EN" "http://www.w3.org/Graphics/SVG/1.1/DTD/svg11.dtd">
<svg width="100%" height="100%" viewBox="0 0 48 48" version="1.1" xmlns="http://www.w3.org/2000/svg" xmlns:xlink="http://www.w3.org/1999/xlink" xml:space="preserve" xmlns:serif="http://www.serif.com/" style="fill-rule:evenodd;clip-rule:evenodd;stroke-linejoin:round;stroke-miterlimit:2;">
    <g transform="matrix(1.02326,0,0,1,-0.0465116,0)">
        <path d="M30.938,23C30.976,23.304 30.997,23.613 31,23.926L31,23.937L31,24L31,24.052L30.999,24.103L30.999,24.155L30.997,24.206L30.996,24.258L30.994,24.309L30.992,24.36L30.99,24.411L30.987,24.462L30.983,24.524L30.98,24.572L30.976,24.619L30.973,24.666L30.968,24.716L30.964,24.767L30.959,24.817L30.953,24.868L30.948,24.918L30.942,24.968L30.936,25.018L30.929,25.068L30.922,25.118L30.915,25.168L30.908,25.218L30.906,25.228C30.808,25.864 30.635,26.475 30.396,27.052C29.202,29.955 26.835,32 23.5,32C23.416,32 23.334,31.999 23.251,31.996C23.167,31.999 23.084,32 23,32L10,32C9.975,32 9.951,32 9.926,32C9.882,31.999 9.837,31.998 9.794,31.997C9.527,31.991 9.263,31.971 9.003,31.938C8.948,31.931 8.893,31.924 8.838,31.916C8.67,31.892 8.504,31.862 8.34,31.827L8.319,31.823C8.064,31.768 7.813,31.701 7.568,31.623L7.528,31.61L7.49,31.598C7.097,31.468 6.717,31.308 6.353,31.121L6.316,31.102L6.3,31.094C6.252,31.068 6.203,31.042 6.156,31.016C6.137,31.006 6.119,30.996 6.101,30.986C6.047,30.956 5.994,30.925 5.941,30.894L5.924,30.884C4.987,30.327 4.173,29.585 3.533,28.708L3.507,28.672C3.486,28.642 3.465,28.613 3.444,28.583L3.421,28.551C3.412,28.538 3.403,28.525 3.394,28.511L3.367,28.472L3.34,28.432L3.327,28.411C3.29,28.356 3.254,28.3 3.219,28.244L3.209,28.229L3.198,28.211C2.439,26.987 2,25.544 2,24C2,21.361 3.281,19.019 5.253,17.561C5.311,17.519 5.37,17.477 5.429,17.435C5.809,17.17 6.214,16.936 6.639,16.739L6.665,16.727C6.887,16.625 7.115,16.533 7.347,16.451L7.389,16.437C7.404,16.431 7.42,16.426 7.435,16.421L7.464,16.411C7.493,16.401 7.523,16.392 7.553,16.382L7.582,16.372C7.883,16.277 8.191,16.199 8.506,16.14L8.535,16.134L8.585,16.125L8.634,16.116C8.65,16.114 8.667,16.111 8.683,16.108L8.722,16.102C8.815,16.087 8.909,16.073 9.003,16.062L9.032,16.058L9.074,16.053C9.244,16.033 9.416,16.019 9.589,16.01L9.64,16.008L9.691,16.006C9.794,16.002 9.897,16 10,16L18.877,16C17.067,17.163 15.676,18.922 14.984,21L9,21C8.832,21 8.667,21.014 8.506,21.041C8.296,21.075 8.093,21.132 7.9,21.208L7.866,21.222C7.826,21.239 7.785,21.256 7.745,21.275C7.713,21.29 7.681,21.305 7.65,21.321C7.525,21.384 7.405,21.455 7.292,21.534L7.264,21.554L7.235,21.575L7.206,21.596C7.19,21.608 7.175,21.619 7.16,21.631C6.967,21.781 6.793,21.954 6.642,22.146C6.633,22.157 6.624,22.169 6.616,22.18L6.596,22.206L6.575,22.235L6.554,22.264C6.514,22.32 6.476,22.377 6.44,22.436C6.43,22.452 6.42,22.469 6.41,22.486C6.149,22.931 6,23.448 6,24C6,24.75 6.275,25.435 6.731,25.961C6.744,25.976 6.757,25.991 6.77,26.006L6.78,26.017L6.799,26.038C6.825,26.066 6.852,26.094 6.879,26.121L6.896,26.138C6.95,26.191 7.006,26.242 7.065,26.291C7.135,26.351 7.208,26.408 7.284,26.461C7.391,26.535 7.503,26.603 7.62,26.664C7.661,26.685 7.703,26.706 7.745,26.725L7.766,26.735C7.803,26.752 7.842,26.768 7.88,26.784L7.9,26.792L7.923,26.801C8.068,26.857 8.219,26.901 8.374,26.934C8.576,26.977 8.785,27 9,27L24,27C25.11,27 26.079,26.396 26.598,25.5L26.622,25.458L26.646,25.414L26.667,25.373L26.689,25.331L26.709,25.29L26.731,25.243L26.75,25.201L26.768,25.159L26.785,25.116L26.788,25.109L26.805,25.067L26.82,25.024L26.836,24.981L26.839,24.972L26.853,24.929L26.867,24.886L26.88,24.842L26.883,24.831L26.895,24.788L26.907,24.744L26.918,24.701L26.92,24.688L26.93,24.644L26.94,24.6L26.948,24.556L26.951,24.543L26.959,24.498L26.966,24.454L26.972,24.409L26.974,24.395L26.978,24.362L26.98,24.35L26.985,24.305L26.989,24.259L26.99,24.245L26.993,24.212L26.993,24.199L26.996,24.153L26.998,24.108L26.999,24.093L26.999,24.06L27,24.046L27,24C27,24 27,23.967 27,23.967L26.999,23.934L26.998,23.902L26.997,23.869C26.984,23.566 26.926,23.274 26.829,23L30.938,23Z" style="fill:#424f81;"/>
    </g>
    <g transform="matrix(-1.02326,0,0,-1,48.0465,48)">
        <path d="M30.938,23C30.976,23.304 30.997,23.613 31,23.926L31,23.937L31,24L31,24.052L30.999,24.103L30.999,24.155L30.997,24.206L30.996,24.258L30.994,24.309L30.992,24.36L30.99,24.411L30.987,24.462L30.983,24.524L30.98,24.572L30.976,24.619L30.973,24.666L30.968,24.716L30.964,24.767L30.959,24.817L30.953,24.868L30.948,24.918L30.942,24.968L30.936,25.018L30.929,25.068L30.922,25.118L30.915,25.168L30.908,25.218L30.906,25.228C30.808,25.864 30.635,26.475 30.396,27.052C29.202,29.955 26.835,32 23.5,32C23.416,32 23.334,31.999 23.251,31.996C23.167,31.999 23.084,32 23,32L10,32C9.975,32 9.951,32 9.926,32C9.882,31.999 9.837,31.998 9.794,31.997C9.527,31.991 9.263,31.971 9.003,31.938C8.948,31.931 8.893,31.924 8.838,31.916C8.67,31.892 8.504,31.862 8.34,31.827L8.319,31.823C8.064,31.768 7.813,31.701 7.568,31.623L7.528,31.61L7.49,31.598C7.097,31.468 6.717,31.308 6.353,31.121L6.316,31.102L6.3,31.094C6.252,31.068 6.203,31.042 6.156,31.016C6.137,31.006 6.119,30.996 6.101,30.986C6.047,30.956 5.994,30.925 5.941,30.894L5.924,30.884C4.987,30.327 4.173,29.585 3.533,28.708L3.507,28.672C3.486,28.642 3.465,28.613 3.444,28.583L3.421,28.551C3.412,28.538 3.403,28.525 3.394,28.511L3.367,28.472L3.34,28.432L3.327,28.411C3.29,28.356 3.254,28.3 3.219,28.244L3.209,28.229L3.198,28.211C2.439,26.987 2,25.544 2,24C2,21.361 3.281,19.019 5.253,17.561C5.311,17.519 5.37,17.477 5.429,17.435C5.809,17.17 6.214,16.936 6.639,16.739L6.665,16.727C6.887,16.625 7.115,16.533 7.347,16.451L7.389,16.437C7.404,16.431 7.42,16.426 7.435,16.421L7.464,16.411C7.493,16.401 7.523,16.392 7.553,16.382L7.582,16.372C7.883,16.277 8.191,16.199 8.506,16.14L8.535,16.134L8.585,16.125L8.634,16.116C8.65,16.114 8.667,16.111 8.683,16.108L8.722,16.102C8.815,16.087 8.909,16.073 9.003,16.062L9.032,16.058L9.074,16.053C9.244,16.033 9.416,16.019 9.589,16.01L9.64,16.008L9.691,16.006C9.794,16.002 9.897,16 10,16L18.877,16C17.067,17.163 15.676,18.922 14.984,21L9,21C8.832,21 8.667,21.014 8.506,21.041C8.296,21.075 8.093,21.132 7.9,21.208L7.866,21.222C7.826,21.239 7.785,21.256 7.745,21.275C7.713,21.29 7.681,21.305 7.65,21.321C7.525,21.384 7.405,21.455 7.292,21.534L7.264,21.554L7.235,21.575L7.206,21.596C7.19,21.608 7.175,21.619 7.16,21.631C6.967,21.781 6.793,21.954 6.642,22.146C6.633,22.157 6.624,22.169 6.616,22.18L6.596,22.206L6.575,22.235L6.554,22.264C6.514,22.32 6.476,22.377 6.44,22.436C6.43,22.452 6.42,22.469 6.41,22.486C6.149,22.931 6,23.448 6,24C6,24.75 6.275,25.435 6.731,25.961C6.744,25.976 6.757,25.991 6.77,26.006L6.78,26.017L6.799,26.038C6.825,26.066 6.852,26.094 6.879,26.121L6.896,26.138C6.95,26.191 7.006,26.242 7.065,26.291C7.135,26.351 7.208,26.408 7.284,26.461C7.391,26.535 7.503,26.603 7.62,26.664C7.661,26.685 7.703,26.706 7.745,26.725L7.766,26.735C7.803,26.752 7.842,26.768 7.88,26.784L7.9,26.792L7.923,26.801C8.068,26.857 8.219,26.901 8.374,26.934C8.576,26.977 8.785,27 9,27L24,27C25.11,27 26.079,26.396 26.598,25.5L26.622,25.458L26.646,25.414L26.667,25.373L26.689,25.331L26.709,25.29L26.731,25.243L26.75,25.201L26.768,25.159L26.785,25.116L26.788,25.109L26.805,25.067L26.82,25.024L26.836,24.981L26.839,24.972L26.853,24.929L26.867,24.886L26.88,24.842L26.883,24.831L26.895,24.788L26.907,24.744L26.918,24.701L26.92,24.688L26.93,24.644L26.94,24.6L26.948,24.556L26.951,24.543L26.959,24.498L26.966,24.454L26.972,24.409L26.974,24.395L26.978,24.362L26.98,24.35L26.985,24.305L26.989,24.259L26.99,24.245L26.993,24.212L26.993,24.199L26.996,24.153L26.998,24.108L26.999,24.093L26.999,24.06L27,24.046L27,24C27,24 27,23.967 27,23.967L26.999,23.934L26.998,23.902L26.997,23.869C26.984,23.566 26.926,23.274 26.829,23L30.938,23Z" style="fill:#424f81;"/>
    </g>
</svg>
