<?xml version="1.0" encoding="UTF-8" standalone="no"?>
<!DOCTYPE svg PUBLIC "-//W3C//DTD SVG 1.1//EN" "http://www.w3.org/Graphics/SVG/1.1/DTD/svg11.dtd">
<svg width="100%" height="100%" viewBox="0 0 48 48" version="1.1" xmlns="http://www.w3.org/2000/svg" xmlns:xlink="http://www.w3.org/1999/xlink" xml:space="preserve" xmlns:serif="http://www.serif.com/" style="fill-rule:evenodd;clip-rule:evenodd;stroke-linejoin:round;stroke-miterlimit:2;">
    <g transform="matrix(0.0982849,0,0,0.0859668,-1.2434,2.09742)">
        <path d="M236.49,138.456L73.698,138.456L73.698,173.353L236.49,173.353L226.316,394.368C226.316,394.368 226.161,406.124 222.377,413C206.027,442.705 162.432,418.702 144,402.996C138.601,398.395 133.423,393.512 130.328,387C126.223,378.364 126.555,368.422 131.185,360C133.862,355.131 138.133,351.645 139,346C111.024,339.509 88.021,316.728 67.576,298.116C61.378,292.473 55.751,286.241 50.166,280C48.086,277.676 45.521,273.386 42.129,272.921C38.78,272.463 37.513,277.672 36.695,280C33.637,288.708 33,296.862 33,306C33,332.438 38.93,355.543 51.36,379C54.359,384.659 57.748,396.568 63.39,399.957C69.111,403.392 76.696,395.567 82.982,399.607C88.179,402.948 91.759,410.175 95.499,415C102.549,424.094 110.361,433.098 119,440.715C151.061,468.98 196.474,485.668 236.49,499.06C245.429,502.052 256,510.638 256,510.638C256,510.638 272.077,501.548 277.188,499.06C291.046,492.312 305.459,490.017 320,484.864C351.664,473.644 378.949,456.712 402.576,432.715C412.129,423.011 418.967,410.712 428.329,401.148C435.345,393.981 445.063,404.852 451.161,399.393C458.599,392.734 463.657,377.091 467.449,368C480.188,337.456 486.267,303.8 474,272C465.223,274.471 457.376,286.624 451,293C436.282,307.718 421.173,322.394 403,332.85C396.472,336.606 389.889,340.154 383,343.218C380.871,344.165 376.396,344.959 375.482,347.43C373.87,351.787 384.001,362.07 385.366,367C389.753,382.851 377.808,397.247 365.961,405.964C349.571,418.022 311.875,440.448 294.904,418.791C290.286,412.898 287.363,394.368 287.363,394.368L277.188,173.353L439.98,173.353L439.98,138L277.188,138.456C276.309,131.504 277.188,115.191 277.188,115.191C277.188,115.191 295.85,102.416 300.561,97.576C313.126,84.665 317.519,68.678 315.83,51C309.989,-10.13 223.84,-15.252 201.006,37C192.52,56.42 198.336,81.756 212.17,96.999C217.397,102.759 238.599,115.191 238.599,115.191C238.599,115.191 237.061,131.221 236.49,138.456ZM256.839,33.764C246.539,33.881 236.601,45.357 236.49,57.029C236.379,68.652 246.469,80.376 256.839,80.294C267.132,80.212 277.127,68.511 277.188,57.029C277.249,45.563 266.989,33.648 256.839,33.764Z" style="fill:#616c9e;"/>
    </g>
</svg>
