<?xml version="1.0" encoding="UTF-8" standalone="no"?>
<!DOCTYPE svg PUBLIC "-//W3C//DTD SVG 1.1//EN" "http://www.w3.org/Graphics/SVG/1.1/DTD/svg11.dtd">
<svg width="100%" height="100%" viewBox="0 0 48 48" version="1.1" xmlns="http://www.w3.org/2000/svg" xmlns:xlink="http://www.w3.org/1999/xlink" xml:space="preserve" xmlns:serif="http://www.serif.com/" style="fill-rule:evenodd;clip-rule:evenodd;stroke-linejoin:round;stroke-miterlimit:2;">
    <g transform="matrix(56,0,0,56.3799,2.17969,44)">
        <path d="M0.765,-0.189L0.731,-0L0.443,-0L0.443,-0.033C0.463,-0.062 0.482,-0.09 0.502,-0.119C0.521,-0.147 0.536,-0.174 0.548,-0.2C0.562,-0.229 0.572,-0.257 0.579,-0.284C0.586,-0.31 0.589,-0.343 0.589,-0.381C0.589,-0.408 0.587,-0.44 0.581,-0.475C0.575,-0.511 0.566,-0.542 0.552,-0.568C0.534,-0.602 0.511,-0.627 0.484,-0.643C0.457,-0.658 0.426,-0.666 0.39,-0.666C0.355,-0.666 0.323,-0.658 0.296,-0.642C0.268,-0.625 0.246,-0.601 0.229,-0.567C0.216,-0.542 0.206,-0.512 0.2,-0.479C0.194,-0.445 0.191,-0.413 0.191,-0.381C0.191,-0.346 0.195,-0.313 0.202,-0.284C0.209,-0.255 0.219,-0.227 0.233,-0.199C0.245,-0.172 0.262,-0.144 0.281,-0.115C0.301,-0.086 0.32,-0.059 0.338,-0.033L0.338,-0L0.048,-0L0.015,-0.189L0.048,-0.189C0.054,-0.177 0.058,-0.165 0.063,-0.155C0.067,-0.144 0.073,-0.133 0.081,-0.122C0.087,-0.111 0.095,-0.102 0.104,-0.096C0.112,-0.089 0.123,-0.086 0.136,-0.086L0.248,-0.086L0.248,-0.102C0.227,-0.126 0.204,-0.152 0.18,-0.182C0.155,-0.211 0.136,-0.237 0.123,-0.259C0.108,-0.284 0.096,-0.311 0.087,-0.341C0.078,-0.37 0.073,-0.402 0.073,-0.436C0.073,-0.473 0.081,-0.508 0.096,-0.54C0.111,-0.572 0.133,-0.601 0.162,-0.627C0.189,-0.652 0.223,-0.672 0.262,-0.687C0.302,-0.702 0.345,-0.709 0.39,-0.709C0.438,-0.709 0.481,-0.702 0.52,-0.687C0.559,-0.672 0.593,-0.652 0.621,-0.626C0.648,-0.601 0.67,-0.572 0.685,-0.539C0.7,-0.507 0.708,-0.472 0.708,-0.436C0.708,-0.402 0.703,-0.371 0.695,-0.342C0.686,-0.312 0.674,-0.285 0.658,-0.258C0.642,-0.232 0.622,-0.205 0.6,-0.179C0.577,-0.152 0.555,-0.126 0.533,-0.102L0.533,-0.086L0.644,-0.086C0.656,-0.086 0.666,-0.089 0.675,-0.096C0.684,-0.103 0.692,-0.111 0.699,-0.122C0.706,-0.133 0.712,-0.145 0.717,-0.155C0.721,-0.166 0.726,-0.177 0.731,-0.189L0.765,-0.189Z" style="fill:#5b5b5b;fill-rule:nonzero;"/>
    </g>
</svg>
