<svg clip-rule="evenodd" fill-rule="evenodd" viewBox="0 0 48 48" xmlns="http://www.w3.org/2000/svg" xmlns:xlink="http://www.w3.org/1999/xlink"><radialGradient id="a" cx="0" cy="0" gradientTransform="matrix(15.6447 0 0 8.39689 24.8371 36.4211)" gradientUnits="userSpaceOnUse" r="1"><stop offset="0" stop-opacity=".13"/><stop offset="1" stop-opacity="0"/></radialGradient><linearGradient id="b" gradientTransform="matrix(12 -40 40 12 18 43)" gradientUnits="userSpaceOnUse" x1="0" x2="1" y1="0" y2="0"><stop offset="0" stop-color="#1dafff"/><stop offset="1" stop-color="#96d9ff"/></linearGradient><linearGradient id="c" gradientTransform="matrix(-3.4798 26.4873 -26.4873 -3.4798 21.5523 29.205)" gradientUnits="userSpaceOnUse" x1="0" x2="1" y1="0" y2="0"><stop offset="0" stop-color="#fff" stop-opacity=".62"/><stop offset="1" stop-color="#fff" stop-opacity="0"/></linearGradient><linearGradient id="d" gradientTransform="matrix(-14.4555 6.85331 -6.85331 -14.4555 28.5329 14.8463)" gradientUnits="userSpaceOnUse" x1="0" x2="1" y1="0" y2="0"><stop offset="0" stop-color="#fff" stop-opacity=".45"/><stop offset="1" stop-color="#fff" stop-opacity="0"/></linearGradient><path d="m40.482 36.421c0 4.607-7.062 8.397-15.645 8.397-8.582 0-15.645-3.79-15.645-8.397 0-4.606 7.063-8.397 15.645-8.397 8.583 0 15.645 3.791 15.645 8.397z" fill="url(#a)" transform="matrix(1.47967 0 0 -.872353 -13.5515 72.5668)"/><path d="m3.5 16.5h41.03v13.011h-41.03z" fill="url(#b)" fill-rule="nonzero" stroke="#0080c7"/><path d="m4.5 17.5h39v11h-39z" fill="none" stroke="url(#c)"/><path d="m4 17h40s-16.461 10.159-40 11c-.044-3.65 0-11 0-11z" fill="url(#d)"/></svg>