<svg clip-rule="evenodd" fill-rule="evenodd" stroke-linecap="round" stroke-linejoin="round" stroke-miterlimit="20" viewBox="0 0 48 48" xmlns="http://www.w3.org/2000/svg" xmlns:xlink="http://www.w3.org/1999/xlink"><linearGradient id="a"><stop offset="0" stop-color="#f8f8f8"/><stop offset="1" stop-color="#c4c4c4"/></linearGradient><linearGradient id="b" gradientTransform="matrix(41.6957 11.1722 -11.1722 41.6957 17.8077 358.58)" gradientUnits="userSpaceOnUse" x1="0" x2="1" xlink:href="#a" y1="0" y2="0"/><linearGradient id="c" gradientTransform="matrix(-41.7037 -11.1743 11.1743 -41.7037 318.754 415.773)" gradientUnits="userSpaceOnUse" x1="0" x2="1" xlink:href="#a" y1="0" y2="0"/><linearGradient id="d" gradientTransform="matrix(-105.714 -28.8413 28.8413 -105.714 276.47 406.751)" gradientUnits="userSpaceOnUse" x1="0" x2="1" y1="0" y2="0"><stop offset="0" stop-color="#f2f2f2"/><stop offset="1" stop-color="#a6a6a6"/></linearGradient><linearGradient id="e" gradientTransform="matrix(105.843 28.3602 -28.3602 105.843 55.2043 385.784)" gradientUnits="userSpaceOnUse" x1="0" x2="1" y1="0" y2="0"><stop offset="0" stop-color="#f8f8f8"/><stop offset=".83" stop-color="#c4c4c4"/><stop offset="1" stop-color="#9b9b9b"/></linearGradient><linearGradient id="f" gradientTransform="matrix(-186.053 -49.8521 49.8521 -186.053 254.783 398.172)" gradientUnits="userSpaceOnUse" x1="0" x2="1" xlink:href="#a" y1="0" y2="0"/><g fill-rule="nonzero"><g transform="matrix(.117298 -.03143 .03143 .117298 -7.934 -18.51)"><path d="m-29.431 503.79 146.26 75.38 164.36 7.85 74.64-278.55-164.36-7.85-146.26-75.38c-24.883 92.85-49.762 185.7-74.641 278.55zm0 0 146.26 75.38 164.36 7.85 74.64-278.55-164.36-7.85-146.26-75.38c-24.883 92.85-49.762 185.7-74.641 278.55zm0 0 146.26 75.38 164.36 7.85 74.64-278.55-164.36-7.85-146.26-75.38c-24.883 92.85-49.762 185.7-74.641 278.55zm0 0 74.637-278.55c-24.879 92.85-49.758 185.7-74.637 278.55zm310.62 83.23 74.64-278.55zm-310.63-83.23 146.27 75.38zm146.27 75.38 164.36 7.85z" fill="#333" stroke="#333" stroke-width="10"/><g fill="#e6e6e6"><path d="m-19.789 498.9 45.993-4.86 92.956 76.47 118.73-19.75 37.4 27.21c23.63-88.21 47.27-176.41 70.9-264.61l-37.4-27.21-118.73 19.75-92.955-76.47-45.993 4.86c-23.633 88.21-47.267 176.41-70.901 264.61z"/><path d="m-19.789 498.9 138.95 71.61 156.13 7.46c23.63-88.21 47.27-176.41 70.9-264.61l-37.4-27.21-118.73 19.75-92.955-76.47-45.993 4.86c-23.633 88.21-47.267 176.41-70.901 264.61z"/><path d="m-19.789 498.9 45.993-4.86 92.956 76.47 118.73-19.75 37.4 27.21c23.63-88.21 47.27-176.41 70.9-264.61l-37.4-27.21-118.73 19.75-92.955-76.47-45.993 4.86c-23.633 88.21-47.267 176.41-70.901 264.61z"/></g><path d="m-19.789 498.9 45.993-4.86 70.901-264.61-45.993 4.86c-23.633 88.21-47.267 176.41-70.901 264.61z" fill="url(#b)"/><path d="m237.89 550.76 37.4 27.21c23.63-88.21 47.27-176.41 70.9-264.61l-37.4-27.21z" fill="url(#c)"/><path d="m26.204 494.04s33.405 13.24 56.642 32.36c23.234 19.12 36.314 44.11 36.314 44.11s23.81-15.11 53.49-20.04c29.69-4.94 65.24.29 65.24.29l70.9-264.61s-35.55-5.23-65.24-.29c-29.68 4.94-53.49 20.04-53.49 20.04s-13.07-24.99-36.31-44.1c-23.24-19.12-56.645-32.37-56.645-32.37z" fill="#e6e6e6"/><path d="m190.05 305.9-70.9 264.61s23.81-15.11 53.5-20.05c29.68-4.93 65.23.3 65.23.3l70.91-264.61s-35.56-5.23-65.24-.29c-29.68 4.93-53.5 20.04-53.5 20.04z" fill="url(#d)"/><path d="m97.1 229.43-70.901 264.6s33.405 13.25 56.643 32.37 36.308 44.11 36.308 44.11l70.9-264.61s-13.07-24.99-36.31-44.11c-23.23-19.11-56.64-32.36-56.64-32.36z" fill="url(#e)"/><path d="m26.199 494.04-45.993 4.86 138.94 71.61s-.83-1.56-2.42-4.2-3.93-6.37-7.02-10.69c-1.54-2.16-3.27-4.46-5.17-6.86s-3.97-4.87-6.213-7.39c-2.246-2.51-4.678-5.07-7.26-7.58-2.581-2.51-5.321-5-8.226-7.39-2.904-2.39-5.978-4.68-9.115-6.87-3.138-2.19-6.355-4.28-9.554-6.24-3.2-1.97-6.387-3.81-9.479-5.52s-6.073-3.3-8.887-4.72c-5.628-2.85-10.521-5.09-14.016-6.63-3.494-1.54-5.591-2.38-5.591-2.38z" fill="#b3b3b3"/><path d="m119.15 570.51 156.13 7.46-37.4-27.21s-2.23-.32-6.03-.73c-3.8-.42-9.15-.93-15.45-1.27-3.15-.17-6.53-.29-10.06-.36-3.53-.06-7.21-.06-10.97.04-3.75.11-7.58.3-11.39.63s-7.62.78-11.33 1.39c-3.71.62-7.33 1.4-10.82 2.29-3.49.88-6.88 1.88-10.08 2.94-3.2 1.05-6.23 2.16-9.07 3.29-2.85 1.12-5.5 2.26-7.91 3.36-4.83 2.19-8.73 4.25-11.43 5.74-2.69 1.5-4.19 2.43-4.19 2.43z" fill="#b3b3b3"/><path d="m190.05 305.9-70.9 264.61s14.46-31.31 41.02-41.65c26.57-10.34 65.24.29 65.24.29l70.9-264.61s-38.67-10.63-65.24-.29c-26.56 10.34-41.02 41.65-41.02 41.65z" fill="url(#f)"/></g><path d="m.145-.694c.014 0 .025.004.035.014s.014.021.014.035-.004.025-.014.035-.021.015-.035.015-.025-.005-.035-.015-.015-.021-.015-.035.005-.025.015-.035c.009-.01.021-.014.035-.014zm.041.234v.359c0 .028.002.047.006.056s.01.016.018.021c.008.004.022.006.043.006v.018h-.217v-.018c.022 0 .037-.002.044-.006.008-.004.014-.011.018-.021s.006-.028.006-.056v-.172c0-.049-.001-.08-.004-.095-.002-.01-.006-.017-.011-.021s-.011-.007-.02-.007-.02.003-.033.008l-.007-.018.135-.054z" transform="matrix(49.158929493 0 0 43.618175712 16.003 38.932)"/></g></svg>