<?xml version="1.0" encoding="UTF-8" standalone="no"?>
<!DOCTYPE svg PUBLIC "-//W3C//DTD SVG 1.1//EN" "http://www.w3.org/Graphics/SVG/1.1/DTD/svg11.dtd">
<svg viewBox="0 0 48 48" version="1.1" xmlns="http://www.w3.org/2000/svg" xmlns:xlink="http://www.w3.org/1999/xlink" xml:space="preserve" xmlns:serif="http://www.serif.com/" style="fill-rule:evenodd;clip-rule:evenodd;stroke-linejoin:round;stroke-miterlimit:2;">
    <g id="rect3699" transform="matrix(0.16,0,0,0.16,4.93994e-06,-4.85068e-08)">
        <path d="M163.761,0C141.137,0.001 122.521,12.988 122.518,28.771C122.521,35.233 125.644,41.511 131.381,46.585L47.639,46.585L47.639,144.035C42.105,131.925 33.408,124.931 24.505,125.432C9.907,126.275 -1.114,147.04 0.09,171.433C1.295,195.824 14.296,215.203 28.893,214.367C36.267,213.923 43.062,208.375 47.639,199.06L47.639,298.698L297.648,298.698L297.648,194.614C293.113,202.506 286.869,207.116 280.172,207.516C265.573,208.357 252.57,188.976 251.365,164.582L251.365,164.579C250.162,140.185 261.185,119.42 275.784,118.581L275.785,118.581C284,118.118 292.079,124.035 297.648,134.593L297.648,46.585L196.097,46.585C201.852,41.515 204.992,35.238 205.009,28.771C205.006,12.986 186.387,-0.001 163.761,-0Z" style="fill-rule:nonzero;"/>
    </g>
    <g id="path3767" transform="matrix(0.16,0,0,0.16,4.93994e-06,-4.85068e-08)">
        <path d="M51.292,300L50.626,199.49L47.637,204.186C43.117,211.289 38.843,214.113 31.636,214.758C25.816,215.279 24.585,214.866 19.491,210.679C8.211,201.408 1.413,178.964 4.209,160.222C6.698,143.534 14.159,131.945 24.582,128.573C28.969,127.154 30.195,127.34 35.629,130.249C39.446,132.293 43.411,135.968 46.184,140.035L50.626,146.547L50.959,97.901L51.293,49.255L135.139,49.255L131.226,43.998C127.076,38.421 125.293,31.146 126.648,25.317C128.005,19.478 135.764,11.525 144.206,7.318C151.511,3.678 153.333,3.358 166.777,3.356C180.969,3.354 181.661,3.495 190.206,8.149C200.788,13.913 206.117,20.513 206.997,28.942C207.529,34.048 206.994,35.863 203.13,42.061L198.645,49.255L300,49.255L300,133.159L294.931,127.686C278.862,110.337 258.4,123.609 254.418,153.962C251.537,175.93 260.148,200.018 273.604,207.629C277.712,209.953 286.404,210.162 290.248,208.03C291.773,207.184 294.591,204.911 296.51,202.978L300,199.463L300,300L51.292,300Z" style="fill:url(#_Linear1);fill-rule:nonzero;"/>
    </g>
    <g id="text3776" transform="matrix(0.16,0,0,0.16,4.93994e-06,-4.85068e-08)">
        <g id="text5107">
            <path d="M163.467,209.329C151.992,209.329 143.987,202.992 143.987,192.333C143.987,183.259 148.924,176.634 163.467,172.168C178.011,176.634 182.948,183.259 182.948,192.333C182.948,202.992 174.942,209.329 163.467,209.329ZM163.467,163.094C154.661,158.773 146.387,154.164 146.387,143.65C146.387,134.864 152.125,128.527 163.467,128.527C174.81,128.527 180.548,134.864 180.548,143.65C180.548,154.164 172.274,158.773 163.467,163.094ZM163.467,117.457C145.988,117.457 135.201,128.815 135.201,143.65C135.201,154.02 141.06,161.654 150.657,166.839C139.725,172.168 132.933,179.514 132.933,192.909C132.933,210.335 144.52,220.543 163.467,220.543C182.415,220.543 194.002,210.335 194.002,192.909C194.002,179.514 187.21,172.168 176.277,166.839C185.875,161.654 191.734,154.02 191.734,143.65C191.734,128.815 180.947,117.457 163.468,117.457L163.467,117.457Z" style="fill:#fff;fill-rule:nonzero;"/>
        </g>
    </g>
    <defs>
        <linearGradient id="_Linear1" x1="0" y1="0" x2="1" y2="0" gradientUnits="userSpaceOnUse" gradientTransform="matrix(-248.69,-250.708,250.708,-248.69,300,300)"><stop offset="0" style="stop-color:#374033;stop-opacity:1"/><stop offset="1" style="stop-color:#7a8c73;stop-opacity:1"/></linearGradient>
    </defs>
</svg>
