<?xml version="1.0" encoding="UTF-8" standalone="no"?>
<!DOCTYPE svg PUBLIC "-//W3C//DTD SVG 1.1//EN" "http://www.w3.org/Graphics/SVG/1.1/DTD/svg11.dtd">
<svg viewBox="0 0 48 48" version="1.1" xmlns="http://www.w3.org/2000/svg" xmlns:xlink="http://www.w3.org/1999/xlink" xml:space="preserve" xmlns:serif="http://www.serif.com/" style="fill-rule:evenodd;clip-rule:evenodd;stroke-linejoin:round;stroke-miterlimit:2;">
    <g id="layer1" transform="matrix(0.16,0,0,0.16,4.93994e-06,-4.85068e-08)">
        <path id="rect3699" d="M163.761,0C141.137,0.001 122.521,12.988 122.518,28.771C122.521,35.233 125.644,41.511 131.381,46.585L47.639,46.585L47.639,144.035C42.105,131.925 33.408,124.931 24.505,125.432C9.907,126.275 -1.114,147.04 0.09,171.433C1.295,195.824 14.296,215.203 28.893,214.367C36.267,213.923 43.062,208.375 47.639,199.06L47.639,298.698L297.648,298.698L297.648,194.614C293.113,202.506 286.869,207.116 280.172,207.516C265.573,208.357 252.57,188.976 251.365,164.582L251.365,164.579C250.162,140.185 261.185,119.42 275.784,118.581L275.785,118.581C284,118.118 292.079,124.035 297.648,134.593L297.648,46.585L196.097,46.585C201.852,41.515 204.992,35.238 205.009,28.771C205.006,12.986 186.387,-0.001 163.761,-0Z" style="fill-rule:nonzero;"/>
        <path id="path3767" d="M51.292,300L50.626,199.49L47.637,204.186C43.117,211.289 38.843,214.113 31.636,214.758C25.816,215.279 24.585,214.866 19.491,210.679C8.211,201.408 1.413,178.964 4.209,160.222C6.698,143.534 14.159,131.945 24.582,128.573C28.969,127.154 30.195,127.34 35.629,130.249C39.446,132.293 43.411,135.968 46.184,140.035L50.626,146.547L50.959,97.901L51.293,49.255L135.139,49.255L131.226,43.998C127.076,38.421 125.293,31.146 126.648,25.317C128.005,19.478 135.764,11.525 144.206,7.318C151.511,3.678 153.333,3.358 166.777,3.356C180.969,3.354 181.661,3.495 190.206,8.149C200.788,13.913 206.117,20.513 206.997,28.942C207.529,34.048 206.994,35.863 203.13,42.061L198.645,49.255L300,49.255L300,133.159L294.931,127.686C278.862,110.337 258.4,123.609 254.418,153.962C251.537,175.93 260.148,200.018 273.604,207.629C277.712,209.953 286.404,210.162 290.248,208.03C291.773,207.184 294.591,204.911 296.51,202.978L300,199.463L300,300L51.292,300Z" style="fill:url(#_Linear1);fill-rule:nonzero;"/>
        <g id="text3776">
            <g id="text5107">
                <path d="M190.926,219.967L190.926,208.033L148.246,208.033C148.246,184.988 191.193,173.609 191.193,145.379C191.193,127.522 179.072,118.033 161.724,118.033C150.381,118.033 140.921,123.209 135.859,126.66L140.655,136.449C147.181,132.704 154.118,129.679 161.591,129.679C172.667,129.679 179.872,134.144 179.872,146.243C179.872,165.399 136.393,180.667 136.393,209.615L136.393,219.967L190.926,219.967Z" style="fill:#fff;fill-rule:nonzero;"/>
            </g>
        </g>
    </g>
    <defs>
        <linearGradient id="_Linear1" x1="0" y1="0" x2="1" y2="0" gradientUnits="userSpaceOnUse" gradientTransform="matrix(-248.667,-250.669,250.669,-248.667,300,300)"><stop offset="0" style="stop-color:#ce5c03;stop-opacity:1"/><stop offset="1" style="stop-color:#fcaf3d;stop-opacity:1"/></linearGradient>
    </defs>
</svg>
