<svg clip-rule="evenodd" fill-rule="evenodd" stroke-linejoin="round" stroke-miterlimit="2" viewBox="0 0 48 48" xmlns="http://www.w3.org/2000/svg" xmlns:xlink="http://www.w3.org/1999/xlink"><linearGradient id="a" gradientTransform="matrix(26.3523 26.3523 -26.3523 26.3523 12.7532 7.66517)" gradientUnits="userSpaceOnUse" x1="0" x2="1" y1="0" y2="0"><stop offset="0" stop-color="#006a00"/><stop offset="1" stop-color="#033"/></linearGradient><linearGradient id="b" gradientTransform="matrix(0 14.3057 -14.3057 0 22.3516 8.55113)" gradientUnits="userSpaceOnUse" x1="0" x2="1" y1="0" y2="0"><stop offset="0" stop-color="#fff"/><stop offset="1" stop-color="#dadada"/></linearGradient><linearGradient id="c" gradientTransform="matrix(31.3864 0 0 16.0435 6.63255 13.1438)" gradientUnits="userSpaceOnUse" x1="0" x2="1" y1="0" y2="0"><stop offset="0" stop-color="#090"/><stop offset="1" stop-color="#9f6"/></linearGradient><linearGradient id="d" gradientTransform="matrix(31.3864 0 0 16.0435 6.63255 13.1438)" gradientUnits="userSpaceOnUse" x1="0" x2="1" y1="0" y2="0"><stop offset="0" stop-color="#9f6"/><stop offset="1" stop-color="#090"/></linearGradient><path d="m0 0h48v48h-48z" fill="none"/><g fill-rule="nonzero"><path d="m27.962 1.17v6.522h-8.987c-7.97 0-14.455 6.485-14.455 14.456v1.083h9.236v-1.083c0-1.392.544-2.702 1.531-3.689.988-.987 2.297-1.53 3.688-1.53h8.987v6.522l1.699-1.172c1.276-.881 2.465-1.741 3.532-2.555 5.235-3.997 6.604-6.122 6.93-7.056l.124-.357-.124-.357c-.326-.935-1.697-3.061-6.93-7.056-1.062-.811-2.25-1.672-3.531-2.555zm-.06-.111h.002l.001-.001z" fill="url(#a)"/><path d="m12.672 22.148c0-3.476 2.828-6.303 6.303-6.303h10.071v5.542c1.253-.865 2.426-1.713 3.489-2.524 5.525-4.218 6.432-6.172 6.564-6.552-.132-.38-1.038-2.333-6.564-6.552-1.064-.812-2.237-1.66-3.489-2.524v5.541h-10.071c-7.385 0-13.371 5.987-13.371 13.372z" fill="url(#b)"/><path d="m30.029 9.759v-4.637l.956.704c.333.245.654.485.953.714 3.751 2.863 5.256 4.619 5.831 5.422l.25.349-.25.349c-.575.803-2.079 2.557-5.83 5.421-.3.229-.623.468-.953.713l-.957.709v-4.641h-11.055c-1.943 0-3.771.759-5.149 2.135-1.024 1.025-1.702 2.289-1.984 3.687l-.097.482-.492-.001c-.846-.001-2.874-.001-3.933-.001h-.686l.091-.68c.821-6.08 6.034-10.725 12.251-10.725z" fill="url(#c)"/><path d="m27.962 1.17v6.522h-8.987c-7.97 0-14.455 6.485-14.455 14.456v1.083h9.236v-1.083c0-1.392.544-2.702 1.531-3.689.988-.987 2.297-1.53 3.688-1.53h8.987v6.522l1.699-1.172c1.276-.881 2.465-1.741 3.532-2.555 5.235-3.997 6.604-6.122 6.93-7.056l.124-.357-.124-.357c-.326-.935-1.697-3.061-6.93-7.056-1.062-.811-2.25-1.672-3.531-2.555zm-.06-.111h.002l.001-.001z" fill="url(#a)" transform="matrix(-1 0 0 -1 47.2475 47.9436)"/><path d="m12.672 22.148c0-3.476 2.828-6.303 6.303-6.303h10.071v5.542c1.253-.865 2.426-1.713 3.489-2.524 5.525-4.218 6.432-6.172 6.564-6.552-.132-.38-1.038-2.333-6.564-6.552-1.064-.812-2.237-1.66-3.489-2.524v5.541h-10.071c-7.385 0-13.371 5.987-13.371 13.372z" fill="url(#b)" transform="matrix(-1 0 0 -1 47.2475 47.9436)"/><path d="m30.029 9.759v-4.637l.956.704c.333.245.654.485.953.714 3.751 2.863 5.256 4.619 5.831 5.422l.25.349-.25.349c-.575.803-2.079 2.557-5.83 5.421-.3.229-.623.468-.953.713l-.957.709v-4.641h-11.055c-1.943 0-3.771.759-5.149 2.135-1.024 1.025-1.702 2.289-1.984 3.687l-.097.482-.492-.001c-.846-.001-2.874-.001-3.933-.001h-.686l.091-.68c.821-6.08 6.034-10.725 12.251-10.725z" fill="url(#d)" transform="matrix(-1 0 0 -1 47.2475 47.9436)"/></g></svg>