<svg clip-rule="evenodd" fill-rule="evenodd" stroke-linecap="round" stroke-linejoin="round" stroke-miterlimit="10" viewBox="0 0 48 48" xmlns="http://www.w3.org/2000/svg" xmlns:xlink="http://www.w3.org/1999/xlink"><radialGradient id="a" cx="0" cy="0" gradientTransform="matrix(29.949 0 0 34.0777 14.0511 2.30212)" gradientUnits="userSpaceOnUse" r="1"><stop offset="0" stop-color="#a3a3a3"/><stop offset="1" stop-color="#4c4c4c"/></radialGradient><radialGradient id="b" cx="0" cy="0" gradientTransform="matrix(-13.0453 .144788 .0858022 7.73071 14.2233 35.9913)" gradientUnits="userSpaceOnUse" r="1"><stop offset="0" stop-color="#96d9ff"/><stop offset="1" stop-color="#1dafff"/></radialGradient><radialGradient id="c" cx="0" cy="0" gradientTransform="matrix(-15.7077 0 0 11.9539 10.8463 24.2688)" gradientUnits="userSpaceOnUse" r="1"><stop offset="0" stop-color="#fff" stop-opacity=".37"/><stop offset="1" stop-color="#fff" stop-opacity="0"/></radialGradient><g transform="matrix(.594958 0 0 .615109 -2.779 8.05664)"><path d="m9.713 1.534h28.573v35.766h-28.573z" fill="#fff"/><path d="m39.855.016h-31.71v38.801h31.71zm-1.568 1.518h-28.574v35.766h28.574z" fill="url(#a)"/></g><g transform="matrix(.594958 0 0 .615109 17.221 4.05664)"><path d="m9.713 1.534h28.573v35.766h-28.573z" fill="#fff"/><path d="m39.855.016h-31.71v38.801h31.71zm-1.568 1.518h-28.574v35.766h28.574z" fill="url(#a)"/></g><path d="m34.312 6.332c0-.066-.08-.119-.179-.119h-19.359c-.099 0-.179.053-.179.119v.636c0 .066.08.119.179.119h19.359c.099 0 .179-.053.179-.119z" fill="#727272" fill-opacity=".55" transform="matrix(.760793 0 0 1.14412 12.896 4.89178)"/><path d="m34.312 6.332c0-.066-.08-.119-.179-.119h-19.359c-.099 0-.179.053-.179.119v.636c0 .066.08.119.179.119h19.359c.099 0 .179-.053.179-.119z" fill="#727272" fill-opacity=".55" transform="matrix(.760793 0 0 1.14412 12.896 6.88716)"/><path d="m34.312 6.332c0-.066-.08-.119-.179-.119h-19.359c-.099 0-.179.053-.179.119v.636c0 .066.08.119.179.119h19.359c.099 0 .179-.053.179-.119z" fill="#727272" fill-opacity=".55" transform="matrix(.760793 0 0 1.14412 12.896 8.88254)"/><path d="m34.312 6.332c0-.066-.08-.119-.179-.119h-19.359c-.099 0-.179.053-.179.119v.636c0 .066.08.119.179.119h19.359c.099 0 .179-.053.179-.119z" fill="#727272" fill-opacity=".55" transform="matrix(.760793 0 0 1.14412 12.896 10.8779)"/><path d="m34.312 6.332c0-.066-.08-.119-.179-.119h-19.359c-.099 0-.179.053-.179.119v.636c0 .066.08.119.179.119h19.359c.099 0 .179-.053.179-.119z" fill="#727272" fill-opacity=".55" transform="matrix(.760793 0 0 1.14412 12.896 12.8733)"/><path d="m34.312 6.332c0-.066-.08-.119-.179-.119h-19.359c-.099 0-.179.053-.179.119v.636c0 .066.08.119.179.119h19.359c.099 0 .179-.053.179-.119z" fill="#727272" fill-opacity=".55" transform="matrix(.760793 0 0 1.14412 12.896 14.8918)"/><g transform="matrix(.594958 0 0 .615109 21.221 17.0566)"><path d="m9.713 1.534h28.573v35.766h-28.573z" fill="#fff"/><path d="m39.855.016h-31.71v38.801h31.71zm-1.568 1.518h-28.574v35.766h28.574z" fill="url(#a)"/></g><g fill="#727272" fill-opacity=".55"><path d="m34.312 6.332c0-.066-.08-.119-.179-.119h-19.359c-.099 0-.179.053-.179.119v.636c0 .066.08.119.179.119h19.359c.099 0 .179-.053.179-.119z" transform="matrix(.760793 0 0 1.14412 16.896 17.8918)"/><path d="m34.312 6.332c0-.066-.08-.119-.179-.119h-19.359c-.099 0-.179.053-.179.119v.636c0 .066.08.119.179.119h19.359c.099 0 .179-.053.179-.119z" transform="matrix(.760793 0 0 1.14412 16.896 19.8872)"/><path d="m34.312 6.332c0-.066-.08-.119-.179-.119h-19.359c-.099 0-.179.053-.179.119v.636c0 .066.08.119.179.119h19.359c.099 0 .179-.053.179-.119z" transform="matrix(.760793 0 0 1.14412 16.896 21.8825)"/><path d="m34.312 6.332c0-.066-.08-.119-.179-.119h-19.359c-.099 0-.179.053-.179.119v.636c0 .066.08.119.179.119h19.359c.099 0 .179-.053.179-.119z" transform="matrix(.760793 0 0 1.14412 16.896 23.8779)"/><path d="m34.312 6.332c0-.066-.08-.119-.179-.119h-19.359c-.099 0-.179.053-.179.119v.636c0 .066.08.119.179.119h19.359c.099 0 .179-.053.179-.119z" transform="matrix(.760793 0 0 1.14412 16.896 25.8733)"/><path d="m34.312 6.332c0-.066-.08-.119-.179-.119h-19.359c-.099 0-.179.053-.179.119v.636c0 .066.08.119.179.119h19.359c.099 0 .179-.053.179-.119z" transform="matrix(.760793 0 0 1.14412 16.896 27.8918)"/><path d="m34.312 6.332c0-.066-.08-.119-.179-.119h-19.359c-.099 0-.179.053-.179.119v.636c0 .066.08.119.179.119h19.359c.099 0 .179-.053.179-.119z" transform="matrix(.760793 0 0 1.14412 -7.10399 8.89178)"/><path d="m34.312 6.332c0-.066-.08-.119-.179-.119h-19.359c-.099 0-.179.053-.179.119v.636c0 .066.08.119.179.119h19.359c.099 0 .179-.053.179-.119z" transform="matrix(.760793 0 0 1.14412 -7.10399 10.8872)"/><path d="m34.312 6.332c0-.066-.08-.119-.179-.119h-19.359c-.099 0-.179.053-.179.119v.636c0 .066.08.119.179.119h19.359c.099 0 .179-.053.179-.119z" transform="matrix(.760793 0 0 1.14412 -7.10399 12.8825)"/><path d="m34.312 6.332c0-.066-.08-.119-.179-.119h-19.359c-.099 0-.179.053-.179.119v.636c0 .066.08.119.179.119h19.359c.099 0 .179-.053.179-.119z" transform="matrix(.760793 0 0 1.14412 -7.10399 14.8779)"/><path d="m34.312 6.332c0-.066-.08-.119-.179-.119h-19.359c-.099 0-.179.053-.179.119v.636c0 .066.08.119.179.119h19.359c.099 0 .179-.053.179-.119z" transform="matrix(.760793 0 0 1.14412 -7.10399 16.8733)"/><path d="m34.312 6.332c0-.066-.08-.119-.179-.119h-19.359c-.099 0-.179.053-.179.119v.636c0 .066.08.119.179.119h19.359c.099 0 .179-.053.179-.119z" transform="matrix(.760793 0 0 1.14412 -7.10399 18.8918)"/></g><g transform="matrix(-1.011 0 0 .857219 27.6154 7.5179)"><path d="m21.875 27.644v7.596h-11.356v3.819l-8.921-7.556 8.974-7.609v3.753z" fill="url(#b)" stroke="#006399" stroke-width=".84"/><path d="m10.329 24.396v3.489h11.282v4.04c-7.934.894-12.988-3.332-19.58-.427z" fill="url(#c)"/><path d="m21.435 28.111v6.697h-11.357v3.306l-7.811-6.613 7.818-6.606v3.218z" style="fill:none;stroke:#fff;stroke-opacity:.48;stroke-width:.45;stroke-linecap:butt;stroke-linejoin:miter"/></g></svg>